<svg xmlns="http://www.w3.org/2000/svg" viewBox="0 0 3840 2160" width="3840" height="2160" preserveAspectRatio="xMidYMid meet" style="width: 100%; height: 100%; transform: translate3d(0px, 0px, 0px);"><defs><clipPath id="__lottie_element_508"><rect width="3840" height="2160" x="0" y="0"></rect></clipPath><clipPath id="__lottie_element_513"><path d="M0,0 L1920,0 L1920,1080 L0,1080z"></path></clipPath><clipPath id="__lottie_element_514"><path fill="#ffffff" clip-rule="nonzero" d=" M0,0 C0,0 0,244.70799255371094 0,244.70799255371094 C0,244.70799255371094 746.7269897460938,244.70799255371094 746.7269897460938,244.70799255371094 C746.7269897460938,244.70799255371094 746.7269897460938,0 746.7269897460938,0 C746.7269897460938,0 0,0 0,0" fill-opacity="1"></path></clipPath><clipPath id="__lottie_element_532"><path d="M0,0 L3840,0 L3840,2160 L0,2160z"></path></clipPath><clipPath id="__lottie_element_539"><path fill="#ffffff" clip-rule="nonzero" d=" M-59.76300048828125,-13.836999893188477 C-59.76300048828125,-13.836999893188477 -59.76300048828125,13.836999893188477 -59.76300048828125,13.836999893188477 C-59.76300048828125,13.836999893188477 58.69499969482422,2.006999969482422 58.69499969482422,2.006999969482422 C58.69499969482422,2.006999969482422 63.01300048828125,-11.324000358581543 63.01300048828125,-11.324000358581543 C63.01300048828125,-11.324000358581543 62.902000427246094,-12.62399959564209 62.45100021362305,-13.420999526977539 C62,-14.218000411987305 60.641998291015625,-13.8149995803833 60.641998291015625,-13.8149995803833 C60.641998291015625,-13.8149995803833 -59.76300048828125,-13.836999893188477 -59.76300048828125,-13.836999893188477" fill-opacity="1"></path></clipPath><clipPath id="__lottie_element_542"><path fill="#ffffff" clip-rule="nonzero" d=" M-67.4280014038086,-13.805999755859375 C-67.4280014038086,-13.805999755859375 -67.4280014038086,13.868000030517578 -67.4280014038086,13.868000030517578 C-67.4280014038086,13.868000030517578 61.1150016784668,13.836999893188477 61.1150016784668,13.836999893188477 C61.1150016784668,13.836999893188477 61.1150016784668,-13.836999893188477 61.1150016784668,-13.836999893188477 C61.1150016784668,-13.836999893188477 -67.4280014038086,-13.805999755859375 -67.4280014038086,-13.805999755859375" fill-opacity="1"></path></clipPath><clipPath id="__lottie_element_557"><path fill="#ffffff" clip-rule="nonzero" d=" M-14.156999588012695,-35.73699951171875 C-14.156999588012695,-35.73699951171875 -14.42199993133545,35.189998626708984 -14.42199993133545,35.189998626708984 C-14.42199993133545,35.189998626708984 14.244999885559082,35.54899978637695 14.244999885559082,35.54899978637695 C14.244999885559082,35.54899978637695 14.156999588012695,-35.73699951171875 14.156999588012695,-35.73699951171875 C14.156999588012695,-35.73699951171875 -14.156999588012695,-35.73699951171875 -14.156999588012695,-35.73699951171875" fill-opacity="1"></path></clipPath><clipPath id="__lottie_element_560"><path fill="#ffffff" clip-rule="nonzero" d=" M-14.156999588012695,-35.73699951171875 C-14.156999588012695,-35.73699951171875 -14.156999588012695,35.637001037597656 -14.156999588012695,35.637001037597656 C-14.156999588012695,35.637001037597656 14.333999633789062,35.46099853515625 14.333999633789062,35.46099853515625 C14.333999633789062,35.46099853515625 14.156999588012695,-35.73699951171875 14.156999588012695,-35.73699951171875 C14.156999588012695,-35.73699951171875 -14.156999588012695,-35.73699951171875 -14.156999588012695,-35.73699951171875" fill-opacity="1"></path></clipPath><clipPath id="__lottie_element_563"><path d="M0,0 L173,0 L173,173 L0,173z"></path></clipPath><mask id="__lottie_element_564"><path fill="#ffffff" clip-rule="nonzero" d=" M0,-7.697000026702881 C0,-7.697000026702881 173,-7.697000026702881 173,-7.697000026702881 C173,-7.697000026702881 173,165.30299377441406 173,165.30299377441406 C173,165.30299377441406 0,165.30299377441406 0,165.30299377441406 C0,165.30299377441406 0,-7.697000026702881 0,-7.697000026702881" fill-opacity="1"></path></mask><clipPath id="__lottie_element_576"><path d="M0,0 L173,0 L173,173 L0,173z"></path></clipPath><clipPath id="__lottie_element_577"><path fill="#ffffff" clip-rule="nonzero" d=" M0,-7.697000026702881 C0,-7.697000026702881 173,-7.697000026702881 173,-7.697000026702881 C173,-7.697000026702881 173,165.30299377441406 173,165.30299377441406 C173,165.30299377441406 0,165.30299377441406 0,165.30299377441406 C0,165.30299377441406 0,-7.697000026702881 0,-7.697000026702881" fill-opacity="1"></path></clipPath><clipPath id="__lottie_element_589"><path d="M0,0 L174,0 L174,173 L0,173z"></path></clipPath><clipPath id="__lottie_element_590"><path fill="#ffffff" clip-rule="nonzero" d=" M0.5,-7.697000026702881 C0.5,-7.697000026702881 173.5,-7.697000026702881 173.5,-7.697000026702881 C173.5,-7.697000026702881 173.5,165.30299377441406 173.5,165.30299377441406 C173.5,165.30299377441406 0.5,165.30299377441406 0.5,165.30299377441406 C0.5,165.30299377441406 0.5,-7.697000026702881 0.5,-7.697000026702881" fill-opacity="1"></path></clipPath><clipPath id="__lottie_element_605"><path d="M0,0 L173,0 L173,173 L0,173z"></path></clipPath><clipPath id="__lottie_element_606"><path fill="#ffffff" clip-rule="nonzero" d=" M0,-7.697000026702881 C0,-7.697000026702881 173,-7.697000026702881 173,-7.697000026702881 C173,-7.697000026702881 173,165.30299377441406 173,165.30299377441406 C173,165.30299377441406 0,165.30299377441406 0,165.30299377441406 C0,165.30299377441406 0,-7.697000026702881 0,-7.697000026702881" fill-opacity="1"></path></clipPath><clipPath id="__lottie_element_633"><path d="M0,0 L174,0 L174,173 L0,173z"></path></clipPath><clipPath id="__lottie_element_634"><path fill="#ffffff" clip-rule="nonzero" d=" M0.5,-7.697000026702881 C0.5,-7.697000026702881 173.5,-7.697000026702881 173.5,-7.697000026702881 C173.5,-7.697000026702881 173.5,180.08999633789062 173.5,180.08999633789062 C173.5,180.08999633789062 0.5,180.08999633789062 0.5,180.08999633789062 C0.5,180.08999633789062 0.5,-7.697000026702881 0.5,-7.697000026702881" fill-opacity="1"></path></clipPath><clipPath id="__lottie_element_649"><path d="M0,0 L3840,0 L3840,2160 L0,2160z"></path></clipPath><linearGradient id="__lottie_element_655" spreadMethod="pad" gradientUnits="userSpaceOnUse" x1="0" y1="0" x2="2.063999891281128" y2="-363.7619934082031"><stop offset="8%" stop-color="rgb(0,73,82)"></stop><stop offset="67%" stop-color="rgb(128,107,96)"></stop><stop offset="100%" stop-color="rgb(255,141,110)"></stop></linearGradient><linearGradient id="__lottie_element_659" spreadMethod="pad" gradientUnits="userSpaceOnUse" x1="0" y1="0" x2="2.063999891281128" y2="-363.7619934082031"><stop offset="8%" stop-color="rgb(0,73,82)"></stop><stop offset="67%" stop-color="rgb(128,107,96)"></stop><stop offset="100%" stop-color="rgb(255,141,110)"></stop></linearGradient><linearGradient id="__lottie_element_663" spreadMethod="pad" gradientUnits="userSpaceOnUse" x1="0" y1="0" x2="2.063999891281128" y2="-363.7619934082031"><stop offset="8%" stop-color="rgb(0,73,82)"></stop><stop offset="67%" stop-color="rgb(128,107,96)"></stop><stop offset="100%" stop-color="rgb(255,141,110)"></stop></linearGradient><linearGradient id="__lottie_element_667" spreadMethod="pad" gradientUnits="userSpaceOnUse" x1="0" y1="0" x2="2.3239593505859375" y2="309.03582763671875"><stop offset="8%" stop-color="rgb(0,73,82)"></stop><stop offset="67%" stop-color="rgb(128,107,96)"></stop><stop offset="100%" stop-color="rgb(255,141,110)"></stop></linearGradient><linearGradient id="__lottie_element_671" spreadMethod="pad" gradientUnits="userSpaceOnUse" x1="0" y1="0" x2="2.063999891281128" y2="-363.7619934082031"><stop offset="8%" stop-color="rgb(0,73,82)"></stop><stop offset="67%" stop-color="rgb(128,107,96)"></stop><stop offset="100%" stop-color="rgb(255,141,110)"></stop></linearGradient></defs><g clip-path="url(#__lottie_element_508)"><g transform="matrix(1,0,0,1,1920,468)" opacity="1" style="display: block;"></g><g fill="rgb(246,243,235)" font-size="192" font-family="Akkurat LL" font-style="normal" font-weight="200" aria-label="The" transform="matrix(1,0,0,1,1437,1313)" opacity="0" style="display: block;"><path stroke-linecap="butt" stroke-linejoin="round" stroke-miterlimit="4" d=" M49.31,-127.42 C49.31,-127.42 49.31,0 49.31,0 C49.31,0 59.36,0 59.36,0 C59.36,0 59.36,-127.42 59.36,-127.42 C59.36,-127.42 105.96,-127.42 105.96,-127.42 C105.96,-127.42 105.96,-137.09 105.96,-137.09 C105.96,-137.09 2.9,-137.09 2.9,-137.09 C2.9,-137.09 2.9,-127.42 2.9,-127.42 C2.9,-127.42 49.31,-127.42 49.31,-127.42z" transform="matrix(1,0,0,1,-165.50399780273438,0)" opacity="1" style="display: inherit;"></path><path stroke-linecap="butt" stroke-linejoin="round" stroke-miterlimit="4" d=" M17.98,-139.99 C17.98,-139.99 17.98,0 17.98,0 C17.98,0 27.65,0 27.65,0 C27.65,0 27.65,-48.34 27.65,-48.34 C27.65,-69.22 36.74,-90.3 60.33,-90.3 C77.73,-90.3 85.85,-80.24 85.85,-63.23 C85.85,-63.23 85.85,0 85.85,0 C85.85,0 95.52,0 95.52,0 C95.52,0 95.52,-63.81 95.52,-63.81 C95.52,-85.46 82.95,-99.39 60.91,-99.39 C47.37,-99.39 33.06,-91.27 27.65,-78.89 C27.65,-78.89 27.65,-139.99 27.65,-139.99 C27.65,-139.99 17.98,-139.99 17.98,-139.99z" transform="matrix(1,0,0,1,-53.56800079345703,0)" opacity="1" style="display: inherit;"></path><path stroke-linecap="butt" stroke-linejoin="round" stroke-miterlimit="4" d=" M55.69,2.71 C75.02,2.71 92.42,-10.83 95.33,-29 C95.33,-29 85.27,-29 85.27,-29 C82.95,-16.63 70.96,-6.57 55.69,-6.57 C34.03,-6.57 21.46,-24.56 21.08,-46.02 C21.08,-46.02 97.45,-46.02 97.45,-46.02 C97.65,-48.73 97.65,-50.08 97.65,-52.4 C97.65,-78.12 81.6,-99.39 54.91,-99.39 C40.8,-99.39 29.39,-93.39 21.08,-82.37 C13.34,-72.12 11.41,-60.14 11.41,-47.95 C11.41,-33.26 16.24,-20.11 24.17,-10.83 C30.55,-3.48 41.77,2.71 55.69,2.71z M21.27,-54.72 C21.66,-73.67 34.42,-90.3 54.91,-90.3 C75.8,-90.3 87.21,-73.09 87.59,-54.72 C87.59,-54.72 21.27,-54.72 21.27,-54.72z" transform="matrix(1,0,0,1,57.9839973449707,0)" opacity="1" style="display: inherit;"></path></g><g fill="rgb(246,243,235)" font-size="192" font-family="Akkurat LL" font-style="normal" font-weight="200" aria-label="next" style="display: block;" transform="matrix(1,0,0,1,1839,1313)" opacity="0"><path stroke-linecap="butt" stroke-linejoin="round" stroke-miterlimit="4" d=" M17.98,0 C17.98,0 27.65,0 27.65,0 C27.65,0 27.65,-50.66 27.65,-50.66 C27.65,-72.12 38.86,-89.91 60.33,-89.91 C77.54,-89.91 85.85,-78.5 85.85,-62.26 C85.85,-62.26 85.85,0 85.85,0 C85.85,0 95.52,0 95.52,0 C95.52,0 95.52,-63.23 95.52,-63.23 C95.52,-84.69 83.34,-99.39 61.29,-99.39 C47.76,-99.39 32.68,-91.46 27.65,-78.12 C27.65,-78.12 26.88,-96.68 26.88,-96.68 C26.88,-96.68 17.98,-96.68 17.98,-96.68 C17.98,-96.68 17.98,0 17.98,0z" style="display: inherit;" transform="matrix(1,0,0,1,-193.15199279785156,0)" opacity="1"></path><path stroke-linecap="butt" stroke-linejoin="round" stroke-miterlimit="4" d=" M55.69,2.71 C75.02,2.71 92.42,-10.83 95.33,-29 C95.33,-29 85.27,-29 85.27,-29 C82.95,-16.63 70.96,-6.57 55.69,-6.57 C34.03,-6.57 21.46,-24.56 21.08,-46.02 C21.08,-46.02 97.45,-46.02 97.45,-46.02 C97.65,-48.73 97.65,-50.08 97.65,-52.4 C97.65,-78.12 81.6,-99.39 54.91,-99.39 C40.8,-99.39 29.39,-93.39 21.08,-82.37 C13.34,-72.12 11.41,-60.14 11.41,-47.95 C11.41,-33.26 16.24,-20.11 24.17,-10.83 C30.55,-3.48 41.77,2.71 55.69,2.71z M21.27,-54.72 C21.66,-73.67 34.42,-90.3 54.91,-90.3 C75.8,-90.3 87.21,-73.09 87.59,-54.72 C87.59,-54.72 21.27,-54.72 21.27,-54.72z" style="display: inherit;" transform="matrix(1,0,0,1,-81.5999984741211,0)" opacity="1"></path><path stroke-linecap="butt" stroke-linejoin="round" stroke-miterlimit="4" d=" M40.41,-49.5 C40.41,-49.5 5.61,0 5.61,0 C5.61,0 17.21,0 17.21,0 C17.21,0 46.99,-42.73 46.99,-42.73 C46.99,-42.73 76.57,0 76.57,0 C76.57,0 88.37,0 88.37,0 C88.37,0 53.56,-49.5 53.56,-49.5 C53.56,-49.5 87.98,-96.68 87.98,-96.68 C87.98,-96.68 76.57,-96.68 76.57,-96.68 C76.57,-96.68 47.18,-55.69 47.18,-55.69 C47.18,-55.69 17.98,-96.68 17.98,-96.68 C17.98,-96.68 6.19,-96.68 6.19,-96.68 C6.19,-96.68 40.41,-49.5 40.41,-49.5z" style="display: inherit;" transform="matrix(1,0,0,1,25.920000076293945,0)" opacity="1"></path><path stroke-linecap="butt" stroke-linejoin="round" stroke-miterlimit="4" d=" M54.14,1.35 C59.55,1.35 64.39,0.58 69.22,-0.97 C69.22,-0.97 69.22,-9.48 69.22,-9.48 C64.2,-8.32 60.13,-7.73 54.91,-7.73 C40.8,-7.73 37.51,-15.86 37.51,-26.49 C37.51,-26.49 37.51,-87.78 37.51,-87.78 C37.51,-87.78 67.87,-87.78 67.87,-87.78 C67.87,-87.78 67.87,-96.68 67.87,-96.68 C67.87,-96.68 37.51,-96.68 37.51,-96.68 C37.51,-96.68 37.51,-125.68 37.51,-125.68 C37.51,-125.68 27.84,-123.36 27.84,-123.36 C27.84,-123.36 27.84,-96.68 27.84,-96.68 C27.84,-96.68 5.03,-96.68 5.03,-96.68 C5.03,-96.68 5.03,-87.78 5.03,-87.78 C5.03,-87.78 27.84,-87.78 27.84,-87.78 C27.84,-87.78 27.84,-25.14 27.84,-25.14 C27.84,-9.67 35.19,1.35 54.14,1.35z" style="display: inherit;" transform="matrix(1,0,0,1,119.23200988769531,0)" opacity="1"></path></g><g fill="rgb(246,243,235)" font-size="192" font-family="Akkurat LL" font-style="normal" font-weight="200" aria-label="stage" style="display: block;" transform="matrix(1,0,0,1,2322,1313)" opacity="0"><path stroke-linecap="butt" stroke-linejoin="round" stroke-miterlimit="4" d=" M49.11,2.71 C69.22,2.71 87.01,-7.54 87.01,-27.26 C87.01,-38.86 78.5,-51.05 60.33,-53.56 C60.33,-53.56 41.96,-56.07 41.96,-56.07 C27.46,-58.01 23.2,-64 23.2,-71.93 C23.2,-82.76 34.03,-90.3 48.15,-90.3 C62.26,-90.3 73.67,-83.92 75.02,-70 C75.02,-70 84.69,-70 84.69,-70 C84.11,-87.4 69.03,-99.39 48.15,-99.39 C29.97,-99.39 13.34,-88.17 13.34,-70.96 C13.34,-56.27 24.36,-48.53 40.61,-46.41 C40.61,-46.41 59.36,-43.89 59.36,-43.89 C71.16,-42.35 77.15,-35.19 77.15,-26.68 C77.15,-13.54 65.16,-6.57 49.11,-6.57 C33.26,-6.57 20.69,-13.54 19.14,-29.39 C19.14,-29.39 9.28,-29.39 9.28,-29.39 C10.25,-9.48 26.1,2.71 49.11,2.71z" style="display: inherit;" transform="matrix(1,0,0,1,-243.26400756835938,0)" opacity="1"></path><path stroke-linecap="butt" stroke-linejoin="round" stroke-miterlimit="4" d=" M54.14,1.35 C59.55,1.35 64.39,0.58 69.22,-0.97 C69.22,-0.97 69.22,-9.48 69.22,-9.48 C64.2,-8.32 60.13,-7.73 54.91,-7.73 C40.8,-7.73 37.51,-15.86 37.51,-26.49 C37.51,-26.49 37.51,-87.78 37.51,-87.78 C37.51,-87.78 67.87,-87.78 67.87,-87.78 C67.87,-87.78 67.87,-96.68 67.87,-96.68 C67.87,-96.68 37.51,-96.68 37.51,-96.68 C37.51,-96.68 37.51,-125.68 37.51,-125.68 C37.51,-125.68 27.84,-123.36 27.84,-123.36 C27.84,-123.36 27.84,-96.68 27.84,-96.68 C27.84,-96.68 5.03,-96.68 5.03,-96.68 C5.03,-96.68 5.03,-87.78 5.03,-87.78 C5.03,-87.78 27.84,-87.78 27.84,-87.78 C27.84,-87.78 27.84,-25.14 27.84,-25.14 C27.84,-9.67 35.19,1.35 54.14,1.35z" style="display: inherit;" transform="matrix(1,0,0,1,-147.2639923095703,0)" opacity="1"></path><path stroke-linecap="butt" stroke-linejoin="round" stroke-miterlimit="4" d=" M43.31,2.71 C58.2,2.71 72.9,-4.83 78.12,-18.56 C78.12,-8.31 81.4,0.77 93.39,0.77 C94.94,0.77 96.68,0.58 98.03,0.19 C98.03,0.19 98.03,-8.31 98.03,-8.31 C97.26,-8.12 96.1,-8.12 95.33,-8.12 C88.75,-8.12 87.78,-11.99 87.78,-18.56 C87.78,-18.56 87.78,-66.32 87.78,-66.32 C87.78,-88.56 73.09,-99.39 51.05,-99.39 C31.71,-99.39 15.66,-88.75 14.31,-68.84 C14.31,-68.84 23.98,-68.84 23.98,-68.84 C24.94,-83.34 36.93,-90.3 51.43,-90.3 C66.32,-90.3 78.12,-83.34 78.12,-67.1 C78.12,-67.1 78.12,-58.59 78.12,-58.59 C78.12,-58.59 42.54,-56.07 42.54,-56.07 C23.2,-54.72 10.06,-44.09 10.06,-26.88 C10.06,-8.7 24.56,2.71 43.31,2.71z M44.09,-6.19 C30.36,-6.19 19.92,-13.53 19.92,-27.07 C19.92,-38.48 28.62,-46.6 43.51,-47.57 C43.51,-47.57 78.12,-49.69 78.12,-49.69 C78.12,-49.69 78.12,-44.67 78.12,-44.67 C78.12,-25.91 68.45,-6.19 44.09,-6.19z" style="display: inherit;" transform="matrix(1,0,0,1,-73.343994140625,0)" opacity="1"></path><path stroke-linecap="butt" stroke-linejoin="round" stroke-miterlimit="4" d=" M52.4,41.19 C75.41,41.19 98.03,33.26 98.03,11.6 C98.03,3.48 95.33,-1.74 90.69,-6.19 C84.11,-12.38 74.83,-14.89 59.94,-14.89 C59.94,-14.89 40.03,-14.89 40.03,-14.89 C32.29,-14.89 22.62,-16.05 22.62,-24.94 C22.62,-30.74 27.46,-34.42 32.68,-36.55 C38.29,-33.45 45.05,-31.9 52.4,-31.9 C72.51,-31.9 88.95,-44.47 88.95,-65.35 C88.95,-74.25 86.04,-81.6 81.21,-87.2 C82.56,-93.78 87.59,-97.65 94.55,-97.65 C95.71,-97.65 97.26,-97.65 98.23,-97.45 C98.23,-97.45 98.23,-105.58 98.23,-105.58 C97.26,-105.77 95.71,-105.96 94.55,-105.96 C85.85,-105.96 77.92,-101.13 75.6,-92.62 C69.03,-96.87 61.1,-99.39 52.4,-99.39 C32.87,-99.39 16.24,-86.24 16.24,-65.35 C16.24,-54.53 20.5,-45.83 27.46,-40.03 C19.53,-37.13 13.92,-31.13 13.92,-23.01 C13.92,-15.86 19.34,-9.48 26.68,-7.93 C16.24,-5.03 9.67,3.67 9.67,13.73 C9.67,32.87 28.62,41.19 52.4,41.19z M52.59,32.48 C35.58,32.48 18.76,27.84 18.76,12.76 C18.76,1.55 26.1,-3.67 34.8,-5.8 C34.8,-5.8 60.71,-5.8 60.71,-5.8 C75.8,-5.8 88.37,-1.93 88.37,11.99 C88.37,27.84 70.96,32.48 52.59,32.48z M52.4,-40.41 C37.32,-40.41 25.72,-49.5 25.72,-65.35 C25.72,-81.4 37.9,-90.88 52.4,-90.88 C67.48,-90.88 79.28,-81.4 79.28,-65.35 C79.28,-49.5 67.48,-40.41 52.4,-40.41z" style="display: inherit;" transform="matrix(1,0,0,1,32.06400680541992,0)" opacity="1"></path><path stroke-linecap="butt" stroke-linejoin="round" stroke-miterlimit="4" d=" M55.69,2.71 C75.02,2.71 92.42,-10.83 95.33,-29 C95.33,-29 85.27,-29 85.27,-29 C82.95,-16.63 70.96,-6.57 55.69,-6.57 C34.03,-6.57 21.46,-24.56 21.08,-46.02 C21.08,-46.02 97.45,-46.02 97.45,-46.02 C97.65,-48.73 97.65,-50.08 97.65,-52.4 C97.65,-78.12 81.6,-99.39 54.91,-99.39 C40.8,-99.39 29.39,-93.39 21.08,-82.37 C13.34,-72.12 11.41,-60.14 11.41,-47.95 C11.41,-33.26 16.24,-20.11 24.17,-10.83 C30.55,-3.48 41.77,2.71 55.69,2.71z M21.27,-54.72 C21.66,-73.67 34.42,-90.3 54.91,-90.3 C75.8,-90.3 87.21,-73.09 87.59,-54.72 C87.59,-54.72 21.27,-54.72 21.27,-54.72z" style="display: inherit;" transform="matrix(1,0,0,1,135.7440185546875,0)" opacity="1"></path></g><g fill="rgb(246,243,235)" font-size="192" font-family="Akkurat LL" font-style="normal" font-weight="200" aria-label="in" style="display: block;" transform="matrix(1,0,0,1,1329,1544)" opacity="0"><path stroke-linecap="butt" stroke-linejoin="round" stroke-miterlimit="4" d=" M17.98,-96.68 C17.98,-96.68 17.98,0 17.98,0 C17.98,0 27.84,0 27.84,0 C27.84,0 27.84,-96.68 27.84,-96.68 C27.84,-96.68 17.98,-96.68 17.98,-96.68z M16.24,-137.09 C16.24,-137.09 16.24,-122.78 16.24,-122.78 C16.24,-122.78 29.39,-122.78 29.39,-122.78 C29.39,-122.78 29.39,-137.09 29.39,-137.09 C29.39,-137.09 16.24,-137.09 16.24,-137.09z" style="display: inherit;" transform="matrix(1,0,0,1,-78.43199920654297,0)" opacity="1"></path><path stroke-linecap="butt" stroke-linejoin="round" stroke-miterlimit="4" d=" M17.98,0 C17.98,0 27.65,0 27.65,0 C27.65,0 27.65,-50.66 27.65,-50.66 C27.65,-72.12 38.86,-89.91 60.33,-89.91 C77.54,-89.91 85.85,-78.5 85.85,-62.26 C85.85,-62.26 85.85,0 85.85,0 C85.85,0 95.52,0 95.52,0 C95.52,0 95.52,-63.23 95.52,-63.23 C95.52,-84.69 83.34,-99.39 61.29,-99.39 C47.76,-99.39 32.68,-91.46 27.65,-78.12 C27.65,-78.12 26.88,-96.68 26.88,-96.68 C26.88,-96.68 17.98,-96.68 17.98,-96.68 C17.98,-96.68 17.98,0 17.98,0z" style="display: inherit;" transform="matrix(1,0,0,1,-33.12000274658203,0)" opacity="1"></path></g><g fill="rgb(246,243,235)" font-size="192" font-family="Akkurat LL" font-style="normal" font-weight="200" aria-label="our" style="display: block;" transform="matrix(1,0,0,1,1599,1544)" opacity="0"><path stroke-linecap="butt" stroke-linejoin="round" stroke-miterlimit="4" d=" M55.3,2.71 C67.67,2.71 77.35,-2.13 84.31,-8.7 C94.94,-18.95 99,-31.71 99,-48.34 C99,-64.78 94.94,-77.73 84.31,-87.98 C77.35,-94.55 67.67,-99.39 55.3,-99.39 C42.93,-99.39 33.26,-94.55 26.3,-87.98 C15.66,-77.73 11.6,-64.78 11.6,-48.34 C11.6,-31.71 15.66,-18.95 26.3,-8.7 C33.26,-2.13 42.93,2.71 55.3,2.71z M55.3,-6.77 C45.63,-6.77 38.28,-10.06 33.06,-15.28 C23.98,-24.17 21.46,-35.58 21.46,-48.34 C21.46,-60.91 23.98,-72.51 33.06,-81.4 C38.28,-86.62 45.63,-89.91 55.3,-89.91 C64.97,-89.91 72.32,-86.62 77.54,-81.4 C86.62,-72.51 89.14,-60.91 89.14,-48.34 C89.14,-35.58 86.62,-24.17 77.54,-15.28 C72.32,-10.06 64.97,-6.77 55.3,-6.77z" style="display: inherit;" transform="matrix(1,0,0,1,-146.39999389648438,0)" opacity="1"></path><path stroke-linecap="butt" stroke-linejoin="round" stroke-miterlimit="4" d=" M51.24,2.71 C65.74,2.71 78.12,-5.41 83.53,-18.18 C83.53,-18.18 84.31,0 84.31,0 C84.31,0 93.2,0 93.2,0 C93.2,0 93.2,-96.68 93.2,-96.68 C93.2,-96.68 83.53,-96.68 83.53,-96.68 C83.53,-96.68 83.53,-46.41 83.53,-46.41 C83.53,-24.75 74.25,-6.77 51.82,-6.77 C34.81,-6.77 26.49,-17.98 26.49,-34.8 C26.49,-34.8 26.49,-96.68 26.49,-96.68 C26.49,-96.68 16.82,-96.68 16.82,-96.68 C16.82,-96.68 16.82,-34.22 16.82,-34.22 C16.82,-12.57 29.39,2.71 51.24,2.71z" style="display: inherit;" transform="matrix(1,0,0,1,-36.57600021362305,0)" opacity="1"></path><path stroke-linecap="butt" stroke-linejoin="round" stroke-miterlimit="4" d=" M17.98,0 C17.98,0 27.65,0 27.65,0 C27.65,0 27.65,-48.34 27.65,-48.34 C27.65,-69.8 35.97,-88.37 58.39,-88.37 C61.49,-88.37 64.78,-88.17 67.87,-87.4 C67.87,-87.4 67.87,-96.68 67.87,-96.68 C64.97,-97.65 61.68,-97.65 58.78,-97.65 C45.05,-97.65 31.9,-90.3 27.65,-76.76 C27.65,-76.76 26.88,-96.68 26.88,-96.68 C26.88,-96.68 17.98,-96.68 17.98,-96.68 C17.98,-96.68 17.98,0 17.98,0z" style="display: inherit;" transform="matrix(1,0,0,1,73.82400512695312,0)" opacity="1"></path></g><g fill="rgb(246,243,235)" font-size="192" font-family="Akkurat LL" font-style="normal" font-weight="200" aria-label="evolution" style="display: block;" transform="matrix(1,0,0,1,2190,1544)" opacity="0"><path stroke-linecap="butt" stroke-linejoin="round" stroke-miterlimit="4" d=" M55.69,2.71 C75.02,2.71 92.42,-10.83 95.33,-29 C95.33,-29 85.27,-29 85.27,-29 C82.95,-16.63 70.96,-6.57 55.69,-6.57 C34.03,-6.57 21.46,-24.56 21.08,-46.02 C21.08,-46.02 97.45,-46.02 97.45,-46.02 C97.65,-48.73 97.65,-50.08 97.65,-52.4 C97.65,-78.12 81.6,-99.39 54.91,-99.39 C40.8,-99.39 29.39,-93.39 21.08,-82.37 C13.34,-72.12 11.41,-60.14 11.41,-47.95 C11.41,-33.26 16.24,-20.11 24.17,-10.83 C30.55,-3.48 41.77,2.71 55.69,2.71z M21.27,-54.72 C21.66,-73.67 34.42,-90.3 54.91,-90.3 C75.8,-90.3 87.21,-73.09 87.59,-54.72 C87.59,-54.72 21.27,-54.72 21.27,-54.72z" style="display: inherit;" transform="matrix(1,0,0,1,-403.9679870605469,0)" opacity="1"></path><path stroke-linecap="butt" stroke-linejoin="round" stroke-miterlimit="4" d=" M41.57,0 C41.57,0 51.63,0 51.63,0 C51.63,0 87.78,-96.68 87.78,-96.68 C87.78,-96.68 77.54,-96.68 77.54,-96.68 C77.54,-96.68 46.6,-11.41 46.6,-11.41 C46.6,-11.41 14.31,-96.68 14.31,-96.68 C14.31,-96.68 3.87,-96.68 3.87,-96.68 C3.87,-96.68 41.57,0 41.57,0z" style="display: inherit;" transform="matrix(1,0,0,1,-296.447998046875,0)" opacity="1"></path><path stroke-linecap="butt" stroke-linejoin="round" stroke-miterlimit="4" d=" M55.3,2.71 C67.67,2.71 77.35,-2.13 84.31,-8.7 C94.94,-18.95 99,-31.71 99,-48.34 C99,-64.78 94.94,-77.73 84.31,-87.98 C77.35,-94.55 67.67,-99.39 55.3,-99.39 C42.93,-99.39 33.26,-94.55 26.3,-87.98 C15.66,-77.73 11.6,-64.78 11.6,-48.34 C11.6,-31.71 15.66,-18.95 26.3,-8.7 C33.26,-2.13 42.93,2.71 55.3,2.71z M55.3,-6.77 C45.63,-6.77 38.28,-10.06 33.06,-15.28 C23.98,-24.17 21.46,-35.58 21.46,-48.34 C21.46,-60.91 23.98,-72.51 33.06,-81.4 C38.28,-86.62 45.63,-89.91 55.3,-89.91 C64.97,-89.91 72.32,-86.62 77.54,-81.4 C86.62,-72.51 89.14,-60.91 89.14,-48.34 C89.14,-35.58 86.62,-24.17 77.54,-15.28 C72.32,-10.06 64.97,-6.77 55.3,-6.77z" style="display: inherit;" transform="matrix(1,0,0,1,-205.4399871826172,0)" opacity="1"></path><path stroke-linecap="butt" stroke-linejoin="round" stroke-miterlimit="4" d=" M36.93,1.16 C40.99,1.16 43.51,0.58 45.63,0 C45.63,0 45.63,-8.7 45.63,-8.7 C42.93,-8.32 41.19,-8.12 37.32,-8.12 C29.2,-8.12 27.26,-13.15 27.26,-19.72 C27.26,-19.72 27.26,-139.99 27.26,-139.99 C27.26,-139.99 17.59,-139.99 17.59,-139.99 C17.59,-139.99 17.59,-19.34 17.59,-19.34 C17.59,-5.22 24.56,1.16 36.93,1.16z" style="display: inherit;" transform="matrix(1,0,0,1,-95.61600494384766,0)" opacity="1"></path><path stroke-linecap="butt" stroke-linejoin="round" stroke-miterlimit="4" d=" M51.24,2.71 C65.74,2.71 78.12,-5.41 83.53,-18.18 C83.53,-18.18 84.31,0 84.31,0 C84.31,0 93.2,0 93.2,0 C93.2,0 93.2,-96.68 93.2,-96.68 C93.2,-96.68 83.53,-96.68 83.53,-96.68 C83.53,-96.68 83.53,-46.41 83.53,-46.41 C83.53,-24.75 74.25,-6.77 51.82,-6.77 C34.81,-6.77 26.49,-17.98 26.49,-34.8 C26.49,-34.8 26.49,-96.68 26.49,-96.68 C26.49,-96.68 16.82,-96.68 16.82,-96.68 C16.82,-96.68 16.82,-34.22 16.82,-34.22 C16.82,-12.57 29.39,2.71 51.24,2.71z" style="display: inherit;" transform="matrix(1,0,0,1,-47.04000473022461,0)" opacity="1"></path><path stroke-linecap="butt" stroke-linejoin="round" stroke-miterlimit="4" d=" M54.14,1.35 C59.55,1.35 64.39,0.58 69.22,-0.97 C69.22,-0.97 69.22,-9.48 69.22,-9.48 C64.2,-8.32 60.13,-7.73 54.91,-7.73 C40.8,-7.73 37.51,-15.86 37.51,-26.49 C37.51,-26.49 37.51,-87.78 37.51,-87.78 C37.51,-87.78 67.87,-87.78 67.87,-87.78 C67.87,-87.78 67.87,-96.68 67.87,-96.68 C67.87,-96.68 37.51,-96.68 37.51,-96.68 C37.51,-96.68 37.51,-125.68 37.51,-125.68 C37.51,-125.68 27.84,-123.36 27.84,-123.36 C27.84,-123.36 27.84,-96.68 27.84,-96.68 C27.84,-96.68 5.03,-96.68 5.03,-96.68 C5.03,-96.68 5.03,-87.78 5.03,-87.78 C5.03,-87.78 27.84,-87.78 27.84,-87.78 C27.84,-87.78 27.84,-25.14 27.84,-25.14 C27.84,-9.67 35.19,1.35 54.14,1.35z" style="display: inherit;" transform="matrix(1,0,0,1,63.36001205444336,0)" opacity="1"></path><path stroke-linecap="butt" stroke-linejoin="round" stroke-miterlimit="4" d=" M17.98,-96.68 C17.98,-96.68 17.98,0 17.98,0 C17.98,0 27.84,0 27.84,0 C27.84,0 27.84,-96.68 27.84,-96.68 C27.84,-96.68 17.98,-96.68 17.98,-96.68z M16.24,-137.09 C16.24,-137.09 16.24,-122.78 16.24,-122.78 C16.24,-122.78 29.39,-122.78 29.39,-122.78 C29.39,-122.78 29.39,-137.09 29.39,-137.09 C29.39,-137.09 16.24,-137.09 16.24,-137.09z" style="display: inherit;" transform="matrix(1,0,0,1,137.2799835205078,0)" opacity="1"></path><path stroke-linecap="butt" stroke-linejoin="round" stroke-miterlimit="4" d=" M55.3,2.71 C67.67,2.71 77.35,-2.13 84.31,-8.7 C94.94,-18.95 99,-31.71 99,-48.34 C99,-64.78 94.94,-77.73 84.31,-87.98 C77.35,-94.55 67.67,-99.39 55.3,-99.39 C42.93,-99.39 33.26,-94.55 26.3,-87.98 C15.66,-77.73 11.6,-64.78 11.6,-48.34 C11.6,-31.71 15.66,-18.95 26.3,-8.7 C33.26,-2.13 42.93,2.71 55.3,2.71z M55.3,-6.77 C45.63,-6.77 38.28,-10.06 33.06,-15.28 C23.98,-24.17 21.46,-35.58 21.46,-48.34 C21.46,-60.91 23.98,-72.51 33.06,-81.4 C38.28,-86.62 45.63,-89.91 55.3,-89.91 C64.97,-89.91 72.32,-86.62 77.54,-81.4 C86.62,-72.51 89.14,-60.91 89.14,-48.34 C89.14,-35.58 86.62,-24.17 77.54,-15.28 C72.32,-10.06 64.97,-6.77 55.3,-6.77z" style="display: inherit;" transform="matrix(1,0,0,1,182.59201049804688,0)" opacity="1"></path><path stroke-linecap="butt" stroke-linejoin="round" stroke-miterlimit="4" d=" M17.98,0 C17.98,0 27.65,0 27.65,0 C27.65,0 27.65,-50.66 27.65,-50.66 C27.65,-72.12 38.86,-89.91 60.33,-89.91 C77.54,-89.91 85.85,-78.5 85.85,-62.26 C85.85,-62.26 85.85,0 85.85,0 C85.85,0 95.52,0 95.52,0 C95.52,0 95.52,-63.23 95.52,-63.23 C95.52,-84.69 83.34,-99.39 61.29,-99.39 C47.76,-99.39 32.68,-91.46 27.65,-78.12 C27.65,-78.12 26.88,-96.68 26.88,-96.68 C26.88,-96.68 17.98,-96.68 17.98,-96.68 C17.98,-96.68 17.98,0 17.98,0z" style="display: inherit;" transform="matrix(1,0,0,1,292.41595458984375,0)" opacity="1"></path></g><g fill="rgb(246,243,235)" font-size="192" font-family="Akkurat LL" font-style="normal" font-weight="200" aria-label="begins" style="display: block;" transform="matrix(1,0,0,1,1701,1772)" opacity="0"><path stroke-linecap="butt" stroke-linejoin="round" stroke-miterlimit="4" d=" M60.71,2.71 C72.12,2.71 80.63,-0.77 87.2,-6.38 C98.42,-15.86 103.64,-31.32 103.64,-48.15 C103.64,-64.2 98.61,-79.66 88.17,-89.33 C81.6,-95.52 72.51,-99.39 60.91,-99.39 C46.79,-99.39 32.68,-90.88 27.65,-77.54 C27.65,-77.54 27.65,-139.99 27.65,-139.99 C27.65,-139.99 17.98,-139.99 17.98,-139.99 C17.98,-139.99 17.98,0 17.98,0 C17.98,0 26.88,0 26.88,0 C26.88,0 27.65,-18.95 27.65,-18.95 C32.68,-5.41 47.37,2.71 60.71,2.71z M60.52,-6.77 C51.82,-6.77 45.24,-9.86 40.22,-14.5 C31.13,-22.82 27.46,-35 27.46,-48.34 C27.46,-62.65 30.94,-74.06 40.03,-82.37 C45.05,-87.01 51.82,-89.91 60.91,-89.91 C70.38,-89.91 77.34,-86.62 82.56,-81.4 C90.49,-73.48 93.59,-60.91 93.59,-48.34 C93.59,-34.42 89.53,-21.66 80.44,-13.54 C75.6,-9.28 69.03,-6.77 60.52,-6.77z" style="display: inherit;" transform="matrix(1,0,0,1,-289.1520080566406,0)" opacity="1"></path><path stroke-linecap="butt" stroke-linejoin="round" stroke-miterlimit="4" d=" M55.69,2.71 C75.02,2.71 92.42,-10.83 95.33,-29 C95.33,-29 85.27,-29 85.27,-29 C82.95,-16.63 70.96,-6.57 55.69,-6.57 C34.03,-6.57 21.46,-24.56 21.08,-46.02 C21.08,-46.02 97.45,-46.02 97.45,-46.02 C97.65,-48.73 97.65,-50.08 97.65,-52.4 C97.65,-78.12 81.6,-99.39 54.91,-99.39 C40.8,-99.39 29.39,-93.39 21.08,-82.37 C13.34,-72.12 11.41,-60.14 11.41,-47.95 C11.41,-33.26 16.24,-20.11 24.17,-10.83 C30.55,-3.48 41.77,2.71 55.69,2.71z M21.27,-54.72 C21.66,-73.67 34.42,-90.3 54.91,-90.3 C75.8,-90.3 87.21,-73.09 87.59,-54.72 C87.59,-54.72 21.27,-54.72 21.27,-54.72z" style="display: inherit;" transform="matrix(1,0,0,1,-174.91200256347656,0)" opacity="1"></path><path stroke-linecap="butt" stroke-linejoin="round" stroke-miterlimit="4" d=" M52.4,41.19 C75.41,41.19 98.03,33.26 98.03,11.6 C98.03,3.48 95.33,-1.74 90.69,-6.19 C84.11,-12.38 74.83,-14.89 59.94,-14.89 C59.94,-14.89 40.03,-14.89 40.03,-14.89 C32.29,-14.89 22.62,-16.05 22.62,-24.94 C22.62,-30.74 27.46,-34.42 32.68,-36.55 C38.29,-33.45 45.05,-31.9 52.4,-31.9 C72.51,-31.9 88.95,-44.47 88.95,-65.35 C88.95,-74.25 86.04,-81.6 81.21,-87.2 C82.56,-93.78 87.59,-97.65 94.55,-97.65 C95.71,-97.65 97.26,-97.65 98.23,-97.45 C98.23,-97.45 98.23,-105.58 98.23,-105.58 C97.26,-105.77 95.71,-105.96 94.55,-105.96 C85.85,-105.96 77.92,-101.13 75.6,-92.62 C69.03,-96.87 61.1,-99.39 52.4,-99.39 C32.87,-99.39 16.24,-86.24 16.24,-65.35 C16.24,-54.53 20.5,-45.83 27.46,-40.03 C19.53,-37.13 13.92,-31.13 13.92,-23.01 C13.92,-15.86 19.34,-9.48 26.68,-7.93 C16.24,-5.03 9.67,3.67 9.67,13.73 C9.67,32.87 28.62,41.19 52.4,41.19z M52.59,32.48 C35.58,32.48 18.76,27.84 18.76,12.76 C18.76,1.55 26.1,-3.67 34.8,-5.8 C34.8,-5.8 60.71,-5.8 60.71,-5.8 C75.8,-5.8 88.37,-1.93 88.37,11.99 C88.37,27.84 70.96,32.48 52.59,32.48z M52.4,-40.41 C37.32,-40.41 25.72,-49.5 25.72,-65.35 C25.72,-81.4 37.9,-90.88 52.4,-90.88 C67.48,-90.88 79.28,-81.4 79.28,-65.35 C79.28,-49.5 67.48,-40.41 52.4,-40.41z" style="display: inherit;" transform="matrix(1,0,0,1,-67.39200592041016,0)" opacity="1"></path><path stroke-linecap="butt" stroke-linejoin="round" stroke-miterlimit="4" d=" M17.98,-96.68 C17.98,-96.68 17.98,0 17.98,0 C17.98,0 27.84,0 27.84,0 C27.84,0 27.84,-96.68 27.84,-96.68 C27.84,-96.68 17.98,-96.68 17.98,-96.68z M16.24,-137.09 C16.24,-137.09 16.24,-122.78 16.24,-122.78 C16.24,-122.78 29.39,-122.78 29.39,-122.78 C29.39,-122.78 29.39,-137.09 29.39,-137.09 C29.39,-137.09 16.24,-137.09 16.24,-137.09z" style="display: inherit;" transform="matrix(1,0,0,1,36.287994384765625,0)" opacity="1"></path><path stroke-linecap="butt" stroke-linejoin="round" stroke-miterlimit="4" d=" M17.98,0 C17.98,0 27.65,0 27.65,0 C27.65,0 27.65,-50.66 27.65,-50.66 C27.65,-72.12 38.86,-89.91 60.33,-89.91 C77.54,-89.91 85.85,-78.5 85.85,-62.26 C85.85,-62.26 85.85,0 85.85,0 C85.85,0 95.52,0 95.52,0 C95.52,0 95.52,-63.23 95.52,-63.23 C95.52,-84.69 83.34,-99.39 61.29,-99.39 C47.76,-99.39 32.68,-91.46 27.65,-78.12 C27.65,-78.12 26.88,-96.68 26.88,-96.68 C26.88,-96.68 17.98,-96.68 17.98,-96.68 C17.98,-96.68 17.98,0 17.98,0z" style="display: inherit;" transform="matrix(1,0,0,1,81.60001373291016,0)" opacity="1"></path><path stroke-linecap="butt" stroke-linejoin="round" stroke-miterlimit="4" d=" M49.11,2.71 C69.22,2.71 87.01,-7.54 87.01,-27.26 C87.01,-38.86 78.5,-51.05 60.33,-53.56 C60.33,-53.56 41.96,-56.07 41.96,-56.07 C27.46,-58.01 23.2,-64 23.2,-71.93 C23.2,-82.76 34.03,-90.3 48.15,-90.3 C62.26,-90.3 73.67,-83.92 75.02,-70 C75.02,-70 84.69,-70 84.69,-70 C84.11,-87.4 69.03,-99.39 48.15,-99.39 C29.97,-99.39 13.34,-88.17 13.34,-70.96 C13.34,-56.27 24.36,-48.53 40.61,-46.41 C40.61,-46.41 59.36,-43.89 59.36,-43.89 C71.16,-42.35 77.15,-35.19 77.15,-26.68 C77.15,-13.54 65.16,-6.57 49.11,-6.57 C33.26,-6.57 20.69,-13.54 19.14,-29.39 C19.14,-29.39 9.28,-29.39 9.28,-29.39 C10.25,-9.48 26.1,2.71 49.11,2.71z" style="display: inherit;" transform="matrix(1,0,0,1,193.15199279785156,0)" opacity="1"></path></g><g fill="rgb(246,243,235)" font-size="192" font-family="Akkurat LL" font-style="normal" font-weight="200" aria-label="here" style="display: block;" transform="matrix(1,0,0,1,2232,1772)" opacity="0"><path stroke-linecap="butt" stroke-linejoin="round" stroke-miterlimit="4" d=" M17.98,-139.99 C17.98,-139.99 17.98,0 17.98,0 C17.98,0 27.65,0 27.65,0 C27.65,0 27.65,-48.34 27.65,-48.34 C27.65,-69.22 36.74,-90.3 60.33,-90.3 C77.73,-90.3 85.85,-80.24 85.85,-63.23 C85.85,-63.23 85.85,0 85.85,0 C85.85,0 95.52,0 95.52,0 C95.52,0 95.52,-63.81 95.52,-63.81 C95.52,-85.46 82.95,-99.39 60.91,-99.39 C47.37,-99.39 33.06,-91.27 27.65,-78.89 C27.65,-78.89 27.65,-139.99 27.65,-139.99 C27.65,-139.99 17.98,-139.99 17.98,-139.99z" style="display: inherit;" transform="matrix(1,0,0,1,-199.58399963378906,0)" opacity="1"></path><path stroke-linecap="butt" stroke-linejoin="round" stroke-miterlimit="4" d=" M55.69,2.71 C75.02,2.71 92.42,-10.83 95.33,-29 C95.33,-29 85.27,-29 85.27,-29 C82.95,-16.63 70.96,-6.57 55.69,-6.57 C34.03,-6.57 21.46,-24.56 21.08,-46.02 C21.08,-46.02 97.45,-46.02 97.45,-46.02 C97.65,-48.73 97.65,-50.08 97.65,-52.4 C97.65,-78.12 81.6,-99.39 54.91,-99.39 C40.8,-99.39 29.39,-93.39 21.08,-82.37 C13.34,-72.12 11.41,-60.14 11.41,-47.95 C11.41,-33.26 16.24,-20.11 24.17,-10.83 C30.55,-3.48 41.77,2.71 55.69,2.71z M21.27,-54.72 C21.66,-73.67 34.42,-90.3 54.91,-90.3 C75.8,-90.3 87.21,-73.09 87.59,-54.72 C87.59,-54.72 21.27,-54.72 21.27,-54.72z" style="display: inherit;" transform="matrix(1,0,0,1,-88.0320053100586,0)" opacity="1"></path><path stroke-linecap="butt" stroke-linejoin="round" stroke-miterlimit="4" d=" M17.98,0 C17.98,0 27.65,0 27.65,0 C27.65,0 27.65,-48.34 27.65,-48.34 C27.65,-69.8 35.97,-88.37 58.39,-88.37 C61.49,-88.37 64.78,-88.17 67.87,-87.4 C67.87,-87.4 67.87,-96.68 67.87,-96.68 C64.97,-97.65 61.68,-97.65 58.78,-97.65 C45.05,-97.65 31.9,-90.3 27.65,-76.76 C27.65,-76.76 26.88,-96.68 26.88,-96.68 C26.88,-96.68 17.98,-96.68 17.98,-96.68 C17.98,-96.68 17.98,0 17.98,0z" style="display: inherit;" transform="matrix(1,0,0,1,19.48799705505371,0)" opacity="1"></path><path stroke-linecap="butt" stroke-linejoin="round" stroke-miterlimit="4" d=" M55.69,2.71 C75.02,2.71 92.42,-10.83 95.33,-29 C95.33,-29 85.27,-29 85.27,-29 C82.95,-16.63 70.96,-6.57 55.69,-6.57 C34.03,-6.57 21.46,-24.56 21.08,-46.02 C21.08,-46.02 97.45,-46.02 97.45,-46.02 C97.65,-48.73 97.65,-50.08 97.65,-52.4 C97.65,-78.12 81.6,-99.39 54.91,-99.39 C40.8,-99.39 29.39,-93.39 21.08,-82.37 C13.34,-72.12 11.41,-60.14 11.41,-47.95 C11.41,-33.26 16.24,-20.11 24.17,-10.83 C30.55,-3.48 41.77,2.71 55.69,2.71z M21.27,-54.72 C21.66,-73.67 34.42,-90.3 54.91,-90.3 C75.8,-90.3 87.21,-73.09 87.59,-54.72 C87.59,-54.72 21.27,-54.72 21.27,-54.72z" style="display: inherit;" transform="matrix(1,0,0,1,92.06400299072266,0)" opacity="1"></path></g><g clip-path="url(#__lottie_element_649)" transform="matrix(1.7240999937057495,0,0,1.7240999937057495,-1916.893798828125,-268.33099365234375)" opacity="1" style="display: block;"><g transform="matrix(0.642490029335022,0,0,0.642490029335022,1922.162109375,1146.1181640625)" opacity="1" style="display: none;"><g opacity="1" transform="matrix(0.8651999831199646,0,0,0.8651999831199646,-4.376999855041504,-568.7639770507812)"><path stroke="url(#__lottie_element_671)" stroke-linecap="round" stroke-linejoin="miter" fill-opacity="0" stroke-miterlimit="4" stroke-opacity="1" stroke-width="40" d="M0 0"></path></g></g><g transform="matrix(0.642490029335022,0,0,0.642490029335022,1922.162109375,1146.1181640625)" opacity="1" style="display: none;"><g opacity="1" transform="matrix(0.8651999831199646,0,0,0.8651999831199646,-4.376999855041504,-568.7639770507812)"><path stroke="url(#__lottie_element_667)" stroke-linecap="round" stroke-linejoin="miter" fill-opacity="0" stroke-miterlimit="4" stroke-opacity="1" stroke-width="40" d=" M382.0830078125,-52.42100143432617 C384.4169921875,-35.27799987792969 385.62298583984375,-17.77899932861328 385.62298583984375,0 C385.62298583984375,210.96400451660156 215.83399963378906,382.5979919433594 5.573999881744385,385.5830078125"></path></g></g><g transform="matrix(0.642490029335022,0,0,0.642490029335022,1922.162109375,1146.1181640625)" opacity="1" style="display: none;"><g opacity="1" transform="matrix(0.8651999831199646,0,0,0.8651999831199646,-4.376999855041504,-568.7639770507812)"><path stroke="url(#__lottie_element_663)" stroke-linecap="round" stroke-linejoin="miter" fill-opacity="0" stroke-miterlimit="4" stroke-opacity="1" stroke-width="40" d="M0 0"></path></g></g><g transform="matrix(0.642490029335022,0,0,0.642490029335022,1922.162109375,1146.1181640625)" opacity="1" style="display: none;"><g opacity="1" transform="matrix(0.8651999831199646,0,0,0.8651999831199646,-4.376999855041504,-568.7639770507812)"><path stroke="url(#__lottie_element_659)" stroke-linecap="round" stroke-linejoin="miter" fill-opacity="0" stroke-miterlimit="4" stroke-opacity="1" stroke-width="40" d="M0 0"></path></g></g><g transform="matrix(0.642490029335022,0,0,0.642490029335022,1922.162109375,1146.1181640625)" opacity="1" style="display: none;"><g opacity="1" transform="matrix(0.8651999831199646,0,0,0.8651999831199646,-4.376999855041504,-568.7639770507812)"><path stroke="url(#__lottie_element_655)" stroke-linecap="round" stroke-linejoin="miter" fill-opacity="0" stroke-miterlimit="4" stroke-opacity="1" stroke-width="40" d="M0 0"></path></g></g></g><g clip-path="url(#__lottie_element_633)" style="display: block;" transform="matrix(1.3792799711227417,0,0,1.3792799711227417,1264.6678466796875,966.91357421875)" opacity="0"><g clip-path="url(#__lottie_element_634)"><g transform="matrix(1,0,0,1,76.59400177001953,76.32499694824219)" opacity="1" style="display: block;"><g opacity="1" transform="matrix(1,0,0,1,0,0)"><path stroke-linecap="round" stroke-linejoin="round" fill-opacity="0" stroke="rgb(248,243,235)" stroke-opacity="1" stroke-width="10" d=" M0.6050000190734863,7.105999946594238 C0.6050000190734863,7.105999946594238 36.840999603271484,86.29000091552734 36.840999603271484,86.29000091552734 C37.50299835205078,87.35099792480469 38.558998107910156,88.1050033569336 39.7760009765625,88.38700103759766 C40.99300003051758,88.6719970703125 42.27399826049805,88.46299743652344 43.33700180053711,87.80599975585938 C44.24599838256836,87.24700164794922 44.935001373291016,86.3949966430664 45.2859992980957,85.38800048828125 C45.2859992980957,85.38800048828125 56.11399841308594,56.15399932861328 56.11399841308594,56.15399932861328 C56.11399841308594,56.15399932861328 85.52799987792969,45.32600021362305 85.52799987792969,45.32600021362305 C86.68099975585938,44.893001556396484 87.625,44.034000396728516 88.16200256347656,42.92599868774414 C88.6989974975586,41.81800079345703 88.79000091552734,40.54399871826172 88.41500091552734,39.37099838256836 C88.05400085449219,38.20899963378906 87.2509994506836,37.23500061035156 86.1780014038086,36.665000915527344 C86.1780014038086,36.665000915527344 6.956999778747559,0.42899999022483826 6.956999778747559,0.42899999022483826 C6.031000137329102,0.014000000432133675 5,-0.10100000351667404 4.004000186920166,0.09000000357627869 C3.007999897003174,0.2849999964237213 2.0959999561309814,0.7789999842643738 1.3910000324249268,1.5080000162124634 C0.6859999895095825,2.2330000400543213 0.22200000286102295,3.1640000343322754 0.06199999898672104,4.164000034332275 C-0.09799999743700027,5.166999816894531 0.05400000140070915,6.192999839782715 0.4970000088214874,7.105999946594238 C0.4970000088214874,7.105999946594238 0.6050000190734863,7.105999946594238 0.6050000190734863,7.105999946594238z"></path></g></g><g transform="matrix(1,0,0,1,9.092002868652344,8.872001647949219)" opacity="1" style="display: block;"><g opacity="1" transform="matrix(1,0,0,1,0,0)"><path stroke-linecap="round" stroke-linejoin="round" fill-opacity="0" stroke="rgb(248,243,235)" stroke-opacity="1" stroke-width="10" d=" M145.5590057373047,77.9520034790039 C146.59500122070312,63.13600158691406 143.0800018310547,48.361000061035156 135.48500061035156,35.5989990234375 C127.88899993896484,22.836999893188477 116.57599639892578,12.70300006866455 103.05999755859375,6.548999786376953 C89.54399871826172,0.3959999978542328 74.47100067138672,-1.4809999465942383 59.85900115966797,1.1720000505447388 C45.24700164794922,3.821000099182129 31.792999267578125,10.873000144958496 21.301000595092773,21.382999420166016 C10.809000015258789,31.89299964904785 3.7780001163482666,45.358001708984375 1.149999976158142,59.974998474121094 C-1.4780000448226929,74.58799743652344 0.4230000078678131,89.66100311279297 6.5980000495910645,103.16600036621094 C12.77299976348877,116.6709976196289 22.927000045776367,127.96700286865234 35.70000076293945,135.54299926757812 C48.472999572753906,143.11900329589844 63.25600051879883,146.60800170898438 78.06900024414062,145.55099487304688"></path></g></g><g transform="matrix(1,0,0,1,40.340003967285156,40.10900115966797)" opacity="1" style="display: block;"><g opacity="1" transform="matrix(1,0,0,1,0,0)"><path stroke-linecap="round" stroke-linejoin="round" fill-opacity="0" stroke="rgb(248,243,235)" stroke-opacity="1" stroke-width="10" d=" M81.9739990234375,31.231000900268555 C80.13700103759766,24.121000289916992 76.4540023803711,17.625 71.2969970703125,12.39900016784668 C66.13999938964844,7.169000148773193 59.69300079345703,3.4010000228881836 52.60900115966797,1.4670000076293945 C45.525001525878906,-0.46399998664855957 38.05699920654297,-0.48899999260902405 30.959999084472656,1.3949999809265137 C23.863000869750977,3.2790000438690186 17.391000747680664,7.00600004196167 12.199000358581543,12.199999809265137 C7.006999969482422,17.389999389648438 3.2799999713897705,23.864999771118164 1.3949999809265137,30.961000442504883 C-0.48899999260902405,38.05699920654297 -0.46399998664855957,45.527000427246094 1.468000054359436,52.608001708984375 C3.4000000953674316,59.69300079345703 7.170000076293945,66.13899993896484 12.397000312805176,71.2959976196289 C17.62299919128418,76.4530029296875 24.121000289916992,80.13899993896484 31.229999542236328,81.97599792480469"></path></g></g><g transform="matrix(1,0,0,1,91.97699737548828,92.29500579833984)" opacity="1" style="display: block;"><g opacity="1" transform="matrix(1,0,0,1,0,0)"><path fill="rgb(255,141,106)" fill-opacity="1" d=" M0.30799999833106995,3.9119999408721924 C0.30799999833106995,3.9119999408721924 20.231000900268555,47.4379997253418 20.231000900268555,47.4379997253418 C20.48699951171875,47.85300064086914 20.854000091552734,48.1879997253418 21.29199981689453,48.404998779296875 C21.729999542236328,48.62200164794922 22.219999313354492,48.71200180053711 22.70599937438965,48.6609992980957 C23.191999435424805,48.61399841308594 23.655000686645508,48.430999755859375 24.040000915527344,48.13100051879883 C24.426000595092773,47.832000732421875 24.719999313354492,47.426998138427734 24.886999130249023,46.96900177001953 C24.886999130249023,46.96900177001953 30.732999801635742,30.871999740600586 30.732999801635742,30.871999740600586 C30.732999801635742,30.871999740600586 46.902000427246094,24.952999114990234 46.902000427246094,24.952999114990234 C47.38800048828125,24.79400062561035 47.81700134277344,24.4950008392334 48.137001037597656,24.097999572753906 C48.457000732421875,23.69700050354004 48.65299987792969,23.214000701904297 48.702999114990234,22.704999923706055 C48.75299835205078,22.195999145507812 48.65299987792969,21.683000564575195 48.41699981689453,21.23200035095215 C48.180999755859375,20.777000427246094 47.81700134277344,20.402000427246094 47.37099838256836,20.152999877929688 C47.37099838256836,20.152999877929688 3.8450000286102295,0.2669999897480011 3.8450000286102295,0.2669999897480011 C3.5209999084472656,0.1120000034570694 3.1700000762939453,0.020999999716877937 2.811000108718872,0.003000000026077032 C2.4519999027252197,-0.014999999664723873 2.0940001010894775,0.0430000014603138 1.7569999694824219,0.16599999368190765 C1.4199999570846558,0.2919999957084656 1.1109999418258667,0.48399999737739563 0.8500000238418579,0.7289999723434448 C0.5889999866485596,0.9739999771118164 0.3799999952316284,1.2740000486373901 0.23600000143051147,1.6019999980926514 C0.0689999982714653,1.9670000076293945 -0.012000000104308128,2.36299991607666 0.0010000000474974513,2.7639999389648438 C0.014000000432133675,3.1649999618530273 0.11900000274181366,3.558000087738037 0.30799999833106995,3.9119999408721924z"></path></g></g></g></g><g clip-path="url(#__lottie_element_605)" style="display: block;" transform="matrix(1.3792799711227417,0,0,1.3792799711227417,1265.357421875,966.91357421875)" opacity="0"><g clip-path="url(#__lottie_element_606)"><g transform="matrix(1,0,0,1,62.59299850463867,8.625)" opacity="1" style="display: block;"><g opacity="1" transform="matrix(1,0,0,1,0,0)"><path stroke-linecap="round" stroke-linejoin="round" fill-opacity="0" stroke="rgb(248,243,235)" stroke-opacity="1" stroke-width="10" d=" M15.1850004196167,4.504000186920166 C13.133000373840332,0.24500000476837158 9.097000122070312,0 7.695000171661377,0 C6.293000221252441,0 0,1.1950000524520874 0,7.991000175476074 C0,12.180999755859375 2.359999895095825,14.609000205993652 5.130000114440918,16.302000045776367 C5.130000114440918,16.302000045776367 10.36299991607666,18.908000946044922 10.36299991607666,18.908000946044922 C13.166999816894531,20.632999420166016 15.493000030517578,23.025999069213867 15.493000030517578,27.215999603271484 C15.493000030517578,34.012001037597656 9.234000205993652,35.21099853515625 7.797999858856201,35.21099853515625 C6.361999988555908,35.21099853515625 2.359999895095825,34.96200180053711 0.30799999833106995,30.702999114990234"></path></g></g><g transform="matrix(1,0,0,1,70.25499725341797,1.8610000610351562)" opacity="1" style="display: block;"><g opacity="1" transform="matrix(1,0,0,1,0,0)"><path stroke-linecap="round" stroke-linejoin="round" fill-opacity="0" stroke="rgb(248,243,235)" stroke-opacity="1" stroke-width="10" d=" M0,6.763999938964844 C0,6.763999938964844 0,0 0,0"></path></g></g><g transform="matrix(1,0,0,1,70.25499725341797,43.90399932861328)" opacity="1" style="display: block;"><g opacity="1" transform="matrix(1,0,0,1,0,0)"><path stroke-linecap="round" stroke-linejoin="round" fill-opacity="0" stroke="rgb(248,243,235)" stroke-opacity="1" stroke-width="10" d=" M0,6.760000228881836 C0,6.760000228881836 0,0 0,0"></path></g></g><g transform="matrix(1,0,0,1,20.354000091552734,16.156997680664062)" opacity="1" style="display: block;"><g opacity="1" transform="matrix(1,0,0,1,0,0)"><path stroke-linecap="round" stroke-linejoin="round" fill-opacity="0" stroke="rgb(248,243,235)" stroke-opacity="1" stroke-width="10" d=" M29.035999298095703,0 C29.035999298095703,0 9.097000122070312,0 9.097000122070312,0 C4.068999767303467,0 0,4.190000057220459 0,9.369000434875488 C0,9.369000434875488 0,130.98599243164062 0,130.98599243164062 C0,136.16200256347656 4.068999767303467,140.3520050048828 9.097000122070312,140.3520050048828 C9.097000122070312,140.3520050048828 53.07899856567383,140.3520050048828 53.07899856567383,140.3520050048828"></path></g></g><g transform="matrix(1,0,0,1,90.12200164794922,16.156999588012695)" opacity="1" style="display: block;"><g opacity="1" transform="matrix(1,0,0,1,0,0)"><path stroke-linecap="round" stroke-linejoin="round" fill-opacity="0" stroke="rgb(248,243,235)" stroke-opacity="1" stroke-width="10" d=" M30.198999404907227,28.87299919128418 C30.198999404907227,28.87299919128418 30.198999404907227,9.369000434875488 30.198999404907227,9.369000434875488 C30.198999404907227,4.190000057220459 26.1299991607666,0 21.101999282836914,0 C21.101999282836914,0 0,0 0,0"></path></g></g><g transform="matrix(1,0,0,1,92.65299987792969,67.56500244140625)" opacity="1" style="display: block;"><g opacity="1" transform="matrix(1,0,0,1,0,0)"><path stroke-linecap="round" stroke-linejoin="round" fill-opacity="0" stroke="rgb(248,243,235)" stroke-opacity="1" stroke-width="10" d=" M41.382999420166016,0 C41.382999420166016,0 13.954000473022461,0 13.954000473022461,0 C6.247000217437744,0 0,6.432000160217285 0,14.368000030517578 C0,14.368000030517578 0,74.5790023803711 0,74.5790023803711 C0,82.51200103759766 6.247000217437744,88.94300079345703 13.954000473022461,88.94300079345703 C13.954000473022461,88.94300079345703 41.382999420166016,88.94300079345703 41.382999420166016,88.94300079345703 C49.09000015258789,88.94300079345703 55.33599853515625,82.51200103759766 55.33599853515625,74.5790023803711 C55.33599853515625,74.5790023803711 55.33599853515625,14.368000030517578 55.33599853515625,14.368000030517578 C55.33599853515625,6.432000160217285 49.09000015258789,0 41.382999420166016,0z"></path></g></g><g transform="matrix(1,0,0,1,105.75399780273438,93.66000366210938)" opacity="1" style="display: block;"><g opacity="1" transform="matrix(1,0,0,1,0,0)"><path fill="rgb(255,141,106)" fill-opacity="1" d=" M21.47800064086914,0 C21.47800064086914,0 7.660999774932861,0 7.660999774932861,0 C3.4200000762939453,0 0,3.5190000534057617 0,7.886000156402588 C0,7.886000156402588 0,43.83599853515625 0,43.83599853515625 C0,48.202999114990234 3.4200000762939453,51.72200012207031 7.660999774932861,51.72200012207031 C7.660999774932861,51.72200012207031 21.47800064086914,51.72200012207031 21.47800064086914,51.72200012207031 C25.7189998626709,51.72200012207031 29.138999938964844,48.202999114990234 29.138999938964844,43.83599853515625 C29.138999938964844,43.83599853515625 29.138999938964844,7.886000156402588 29.138999938964844,7.886000156402588 C29.138999938964844,3.5190000534057617 25.7189998626709,0 21.47800064086914,0z"></path></g></g><g transform="matrix(1,0,0,1,115.05500030517578,76.33600616455078)" opacity="1" style="display: block;"><g opacity="1" transform="matrix(1,0,0,1,0,0)"><path fill="rgb(248,243,235)" fill-opacity="1" d=" M5.267000198364258,10.842000007629395 C8.175999641418457,10.842000007629395 10.534000396728516,8.416999816894531 10.534000396728516,5.421000003814697 C10.534000396728516,2.424999952316284 8.175999641418457,0 5.267000198364258,0 C2.3580000400543213,0 0,2.424999952316284 0,5.421000003814697 C0,8.416999816894531 2.3580000400543213,10.842000007629395 5.267000198364258,10.842000007629395z"></path></g></g></g></g><g clip-path="url(#__lottie_element_589)" style="display: block;" transform="matrix(1.3792799711227417,0,0,1.3792799711227417,1264.6678466796875,966.91357421875)" opacity="0"><g clip-path="url(#__lottie_element_590)"><g transform="matrix(1,0,0,1,9.171001434326172,13.763999938964844)" opacity="1" style="display: block;"><g opacity="1" transform="matrix(1,0,0,1,0,0)"><path stroke-linecap="round" stroke-linejoin="round" fill-opacity="0" stroke="rgb(248,243,235)" stroke-opacity="1" stroke-width="10" d=" M62.4739990234375,0 C62.4739990234375,0 72.90399932861328,0 72.90399932861328,0 C75.66500091552734,0.007000000216066837 78.31099700927734,1.1119999885559082 80.25599670410156,3.068000078201294 C82.20500183105469,5.02400016784668 83.29900360107422,7.669000148773193 83.29900360107422,10.430000305175781 C83.29900360107422,10.430000305175781 83.29900360107422,52.08000183105469 83.29900360107422,52.08000183105469 C83.29900360107422,63.124000549316406 78.91400146484375,73.72000122070312 71.0999984741211,81.52999877929688 C63.290000915527344,89.33999633789062 52.696998596191406,93.72899627685547 41.64899826049805,93.72899627685547 C30.604999542236328,93.72899627685547 20.01300048828125,89.33999633789062 12.199000358581543,81.52999877929688 C4.388999938964844,73.72000122070312 0,63.124000549316406 0,52.08000183105469 C0,52.08000183105469 0,10.430000305175781 0,10.430000305175781 C0,7.6620001792907715 1.1009999513626099,5.008999824523926 3.056999921798706,3.052999973297119 C5.013000011444092,1.097000002861023 7.664999961853027,0 10.430000305175781,0 C10.430000305175781,0 20.825000762939453,0 20.825000762939453,0"></path></g></g><g transform="matrix(1,0,0,1,123.72400665283203,45.01900100708008)" opacity="1" style="display: block;"><g opacity="1" transform="matrix(1,0,0,1,0,0)"><path stroke-linecap="round" stroke-linejoin="round" fill-opacity="0" stroke="rgb(248,243,235)" stroke-opacity="1" stroke-width="10" d=" M0,20.825000762939453 C0,24.94300079345703 1.2200000286102295,28.969999313354492 3.507999897003174,32.391998291015625 C5.796000003814697,35.81700134277344 9.04800033569336,38.487998962402344 12.855999946594238,40.064998626708984 C16.65999984741211,41.638999938964844 20.84600067138672,42.05400085449219 24.885000228881836,41.249000549316406 C28.927000045776367,40.444000244140625 32.637001037597656,38.4630012512207 35.54999923706055,35.54999923706055 C38.46200180053711,32.637001037597656 40.444000244140625,28.927000045776367 41.249000549316406,24.885000228881836 C42.04999923706055,20.84600067138672 41.63800048828125,16.65999984741211 40.06100082397461,12.855999946594238 C38.48699951171875,9.04800033569336 35.81700134277344,5.796000003814697 32.391998291015625,3.507999897003174 C28.966999053955078,1.2200000286102295 24.94300079345703,0 20.825000762939453,0 C15.298999786376953,0 10.003999710083008,2.194000005722046 6.098999977111816,6.098999977111816 C2.194000005722046,10.003999710083008 0,15.303000450134277 0,20.825000762939453 C0,20.825000762939453 0,20.825000762939453 0,20.825000762939453z"></path></g></g><g transform="matrix(1,0,0,1,50.81999969482422,86.66899871826172)" opacity="1" style="display: block;"><g opacity="1" transform="matrix(1,0,0,1,0,0)"><path stroke-linecap="round" stroke-linejoin="round" fill-opacity="0" stroke="rgb(248,243,235)" stroke-opacity="1" stroke-width="10" d=" M0,20.825000762939453 C0,20.825000762939453 0,26.02199935913086 0,26.02199935913086 C0,38.465999603271484 4.945000171661377,50.39799880981445 13.744000434875488,59.196998596191406 C22.542999267578125,67.99600219726562 34.47800064086914,72.94000244140625 46.91899871826172,72.94000244140625 C59.362998962402344,72.94000244140625 71.2979965209961,67.99600219726562 80.09700012207031,59.196998596191406 C88.89600372314453,50.39799880981445 93.83699798583984,38.465999603271484 93.83699798583984,26.02199935913086 C93.83699798583984,26.02199935913086 93.83699798583984,0 93.83699798583984,0"></path></g></g><g transform="matrix(1,0,0,1,133.07200622558594,54.40399932861328)" opacity="1" style="display: block;"><g opacity="1" transform="matrix(1,0,0,1,0,0)"><path fill="rgb(255,141,106)" fill-opacity="1" d=" M0,11.440999984741211 C-0.007000000216066837,13.711000442504883 0.6600000262260437,15.934000015258789 1.9199999570846558,17.825000762939453 C3.1760001182556152,19.719999313354492 4.966000080108643,21.19700050354004 7.063000202178955,22.06999969482422 C9.156000137329102,22.94300079345703 11.467000007629395,23.173999786376953 13.696999549865723,22.73699951171875 C15.923999786376953,22.297000885009766 17.974000930786133,21.207000732421875 19.579999923706055,19.604999542236328 C21.190000534057617,18.003000259399414 22.285999298095703,15.956000328063965 22.733999252319336,13.729000091552734 C23.17799949645996,11.501999855041504 22.95400047302246,9.192999839782715 22.083999633789062,7.0920000076293945 C21.218000411987305,4.994999885559082 19.746000289916992,3.197000026702881 17.857999801635742,1.934000015258789 C15.970000267028809,0.6740000247955322 13.75100040435791,0 11.47700023651123,0 C8.442000389099121,0 5.526000022888184,1.2020000219345093 3.375,3.3489999771118164 C1.2239999771118164,5.493000030517578 0.010999999940395355,8.402000427246094 0,11.440999984741211z"></path></g></g></g></g><g clip-path="url(#__lottie_element_576)" style="display: block;" transform="matrix(1.3792799711227417,0,0,1.3792799711227417,1265.357421875,966.91357421875)" opacity="0.000008076033935537908"><g clip-path="url(#__lottie_element_577)"><g transform="matrix(1,0,0,1,50.012996673583984,12.299999237060547)" opacity="1" style="display: block;"><g opacity="1" transform="matrix(1,0,0,1,0,0)"><path stroke-linecap="round" stroke-linejoin="round" fill-opacity="0" stroke="rgb(248,243,235)" stroke-opacity="1" stroke-width="10" d=" M0,36.45199966430664 C0,46.12099838256836 3.8399999141693115,55.38999938964844 10.678999900817871,62.229000091552734 C17.514999389648438,69.06500244140625 26.78700065612793,72.90399932861328 36.45199966430664,72.90399932861328 C46.12099838256836,72.90399932861328 55.391998291015625,69.06500244140625 62.22800064086914,62.229000091552734 C69.06400299072266,55.38999938964844 72.90399932861328,46.12099838256836 72.90399932861328,36.45199966430664 C72.90399932861328,36.45199966430664 72.90399932861328,36.45199966430664 72.90399932861328,36.45199966430664 C72.90399932861328,26.783000946044922 69.06400299072266,17.511999130249023 62.22800064086914,10.675999641418457 C55.391998291015625,3.8399999141693115 46.12099838256836,0 36.45199966430664,0 C26.78700065612793,0 17.514999389648438,3.8399999141693115 10.678999900817871,10.675999641418457 C3.8399999141693115,17.511999130249023 0,26.783000946044922 0,36.45199966430664 C0,36.45199966430664 0,36.45199966430664 0,36.45199966430664z"></path></g></g><g transform="matrix(1,0,0,1,20.597999572753906,100.88200378417969)" opacity="1" style="display: block;"><g opacity="1" transform="matrix(1,0,0,1,0,0)"><path stroke-linecap="round" stroke-linejoin="round" fill-opacity="0" stroke="rgb(248,243,235)" stroke-opacity="1" stroke-width="10" d=" M131.73300170898438,52.02899932861328 C128.20700073242188,37.2140007019043 119.78600311279297,24.01799964904785 107.83300018310547,14.57699966430664 C95.88300323486328,5.136000156402588 81.09700012207031,0 65.86599731445312,0 C50.63600158691406,0 35.849998474121094,5.136000156402588 23.899999618530273,14.57699966430664 C11.946999549865723,24.01799964904785 3.5260000228881836,37.2140007019043 0,52.02899932861328 C0,52.02899932861328 131.73300170898438,52.02899932861328 131.73300170898438,52.02899932861328z"></path></g></g><g transform="matrix(1,0,0,1,66.43399810791016,28.17999839782715)" opacity="1" style="display: block;"><g opacity="1" transform="matrix(1,0,0,1,0,0)"><path fill="rgb(255,141,106)" fill-opacity="1" d=" M0,20.0310001373291 C0,25.3439998626709 2.1110000610351562,30.43600082397461 5.868000030517578,34.19300079345703 C9.625,37.95000076293945 14.718000411987305,40.06100082397461 20.0310001373291,40.06100082397461 C25.3439998626709,40.06100082397461 30.43899917602539,37.95000076293945 34.19599914550781,34.19300079345703 C37.95000076293945,30.43600082397461 40.06100082397461,25.3439998626709 40.06100082397461,20.0310001373291 C40.06100082397461,14.718000411987305 37.95000076293945,9.621999740600586 34.19599914550781,5.864999771118164 C30.43899917602539,2.1110000610351562 25.3439998626709,0 20.0310001373291,0 C14.718000411987305,0 9.625,2.1110000610351562 5.868000030517578,5.864999771118164 C2.1110000610351562,9.621999740600586 0,14.718000411987305 0,20.0310001373291z"></path></g></g></g></g><g clip-path="url(#__lottie_element_563)" transform="matrix(1.3792799711227417,0,0,1.3792799711227417,1265.357421875,966.91357421875)" opacity="0.000004975199953065612" style="display: block;"><g mask="url(#__lottie_element_564)"><g transform="matrix(1,0,0,1,137.63400268554688,97.15499877929688)" opacity="1" style="display: block;"><g opacity="1" transform="matrix(1,0,0,1,0,0)"><path stroke-linecap="round" stroke-linejoin="round" fill-opacity="0" stroke="rgb(248,243,235)" stroke-opacity="1" stroke-width="10" d=" M27.06800079345703,13.616999626159668 C27.06800079345703,13.616999626159668 13.534000396728516,0 13.534000396728516,0 C13.534000396728516,0 0,13.534000396728516 0,13.534000396728516"></path></g></g><g transform="matrix(1,0,0,1,21.23900604248047,5.121002197265625)" opacity="1" style="display: block;"><g opacity="1" transform="matrix(1,0,0,1,0,0)"><path stroke-linecap="round" stroke-linejoin="round" fill-opacity="0" stroke="rgb(248,243,235)" stroke-opacity="1" stroke-width="10" d=" M129.9290008544922,79.2239990234375 C129.9290008544922,79.2239990234375 129.9290008544922,60.625999450683594 129.9290008544922,60.625999450683594 C129.83200073242188,58.558998107910156 128.96800231933594,56.63399887084961 127.51399993896484,55.233001708984375 C127.51399993896484,55.233001708984375 64.96399688720703,0 64.96399688720703,0 C64.96399688720703,0 2.4149999618530273,55.233001708984375 2.4149999618530273,55.233001708984375 C0.9929999709129333,56.63399887084961 0.1340000033378601,58.558998107910156 0,60.625999450683594 C0,60.625999450683594 0,144.99899291992188 0,144.99899291992188 C0,148.64199829101562 2.7790000438690186,151.58299255371094 6.218999862670898,151.58299255371094 C6.218999862670898,151.58299255371094 123.70999908447266,151.58299255371094 123.70999908447266,151.58299255371094 C127.14900207519531,151.58299255371094 129.9290008544922,148.64199829101562 129.9290008544922,144.99899291992188 C129.9290008544922,144.99899291992188 129.9290008544922,94.94999694824219 129.9290008544922,94.94999694824219"></path></g></g><g transform="matrix(1,0,0,1,48.307003021240234,43.01700210571289)" opacity="1" style="display: block;"><g opacity="1" transform="matrix(1,0,0,1,0,0)"><path fill="rgb(255,141,110)" fill-opacity="1" d=" M71.85099792480469,86.61900329589844 C74.03099822998047,86.61900329589844 75.79199981689453,84.94599914550781 75.79199981689453,82.87100219726562 C75.79199981689453,82.87100219726562 75.79199981689453,34.64799880981445 75.79199981689453,34.64799880981445 C75.71600341796875,33.483001708984375 75.1780014038086,32.35499954223633 74.26100158691406,31.554000854492188 C74.26100158691406,31.554000854492188 37.895999908447266,0 37.895999908447266,0 C37.895999908447266,0 1.5299999713897705,31.554000854492188 1.5299999713897705,31.554000854492188 C0.6129999756813049,32.35499954223633 0.07599999755620956,33.446998596191406 0,34.64799880981445 C0,34.64799880981445 0,82.87100219726562 0,82.87100219726562 C0,84.94599914550781 1.7610000371932983,86.61900329589844 3.940999984741211,86.61900329589844 C3.940999984741211,86.61900329589844 71.85099792480469,86.61900329589844 71.85099792480469,86.61900329589844z"></path></g></g></g></g><g clip-path="url(#__lottie_element_532)" style="display: block;" transform="matrix(1.3792799711227417,0,0,1.3792799711227417,68.1851806640625,335.052978515625)" opacity="1"><g clip-path="url(#__lottie_element_560)" style="display: block;" transform="matrix(0.707103431224823,0.707103431224823,-0.7071000337600708,0.7071000337600708,1005.586669921875,499.5623474121094)" opacity="1"><g opacity="1" transform="matrix(1,0,0,1,0,0)"><path fill="rgb(246,243,235)" fill-opacity="1" d=" M-14.135000228881836,-31.85300064086914 C-14.36400032043457,-33.92499923706055 -12.741000175476074,-35.73699951171875 -10.656000137329102,-35.73699951171875 C-10.656000137329102,-35.73699951171875 10.656000137329102,-35.73699951171875 10.656000137329102,-35.73699951171875 C12.741000175476074,-35.73699951171875 14.36400032043457,-33.92499923706055 14.135000228881836,-31.851999282836914 C14.135000228881836,-31.851999282836914 12.642999649047852,-18.336000442504883 12.642999649047852,-18.336000442504883 C12.642999649047852,-18.336000442504883 12.642999649047852,-18.336000442504883 12.642999649047852,-18.336000442504883 C12.642999649047852,-18.336000442504883 6.672999858856201,35.73699951171875 6.672999858856201,35.73699951171875 C6.672999858856201,35.73699951171875 6.672999858856201,35.73699951171875 6.672999858856201,35.73699951171875 C6.672999858856201,35.73699951171875 -6.672999858856201,35.73699951171875 -6.672999858856201,35.73699951171875 C-6.672999858856201,35.73699951171875 -9.524999618530273,9.909000396728516 -9.524999618530273,9.909000396728516 C-9.524999618530273,9.909000396728516 -9.524999618530273,9.909000396728516 -9.524999618530273,9.909000396728516 C-9.524999618530273,9.909000396728516 -14.135000228881836,-31.85300064086914 -14.135000228881836,-31.85300064086914z"></path></g></g><g clip-path="url(#__lottie_element_557)" style="display: block;" transform="matrix(0.707103431224823,-0.707103431224823,0.7071000337600708,0.7071000337600708,914.413330078125,499.5623474121094)" opacity="1"><g opacity="1" transform="matrix(1,0,0,1,0,0)"><path fill="rgb(246,243,235)" fill-opacity="1" d=" M14.135000228881836,-31.85300064086914 C14.36400032043457,-33.92499923706055 12.741000175476074,-35.73699951171875 10.656000137329102,-35.73699951171875 C10.656000137329102,-35.73699951171875 -10.656000137329102,-35.73699951171875 -10.656000137329102,-35.73699951171875 C-12.741000175476074,-35.73699951171875 -14.36400032043457,-33.92499923706055 -14.135000228881836,-31.851999282836914 C-14.135000228881836,-31.851999282836914 -12.642999649047852,-18.336000442504883 -12.642999649047852,-18.336000442504883 C-12.642999649047852,-18.336000442504883 -12.642999649047852,-18.336000442504883 -12.642999649047852,-18.336000442504883 C-12.642999649047852,-18.336000442504883 -6.672999858856201,35.73699951171875 -6.672999858856201,35.73699951171875 C-6.672999858856201,35.73699951171875 -6.672999858856201,35.73699951171875 -6.672999858856201,35.73699951171875 C-6.672999858856201,35.73699951171875 6.672999858856201,35.73699951171875 6.672999858856201,35.73699951171875 C6.672999858856201,35.73699951171875 9.524999618530273,9.909000396728516 9.524999618530273,9.909000396728516 C9.524999618530273,9.909000396728516 9.524999618530273,9.909000396728516 9.524999618530273,9.909000396728516 C9.524999618530273,9.909000396728516 14.135000228881836,-31.85300064086914 14.135000228881836,-31.85300064086914z"></path></g></g><g transform="matrix(1,-0.000007468253443221329,0.000007468253443221329,1,1035.9549560546875,520.9276733398438)" opacity="1" style="display: block;"><g opacity="1" transform="matrix(1,0,0,1,0,0)"><path fill="rgb(246,243,235)" fill-opacity="1" d=" M-51.11000061035156,7.860000133514404 C-51.11000061035156,7.860000133514404 -30.871000289916992,-8.354000091552734 -30.871000289916992,-8.354000091552734 C-30.871000289916992,-8.354000091552734 24.986000061035156,-13.697999954223633 24.986000061035156,-13.697999954223633 C24.986000061035156,-13.697999954223633 26.65999984741211,-13.82699966430664 26.65999984741211,-13.82699966430664 C27.679000854492188,-13.906000137329102 28.680999755859375,-13.534000396728516 29.402999877929688,-12.812000274658203 C29.402999877929688,-12.812000274658203 50.07699966430664,7.861000061035156 50.07699966430664,7.861000061035156 C52.28200149536133,10.065999984741211 50.72100067138672,13.836999893188477 47.60200119018555,13.836999893188477 C47.60200119018555,13.836999893188477 -45.13199996948242,13.836999893188477 -45.13199996948242,13.836999893188477 C-45.13199996948242,13.836999893188477 -51.11000061035156,7.860000133514404 -51.11000061035156,7.860000133514404 C-51.11000061035156,7.860000133514404 -51.11000061035156,7.860000133514404 -51.11000061035156,7.860000133514404z"></path></g></g><g transform="matrix(1,0.000007468253443221329,-0.000007468253443221329,1,884.0451049804688,520.9276733398438)" opacity="1" style="display: block;"><g opacity="1" transform="matrix(1,0,0,1,0,0)"><path fill="rgb(246,243,235)" fill-opacity="1" d=" M51.11000061035156,7.860000133514404 C51.11000061035156,7.860000133514404 30.871000289916992,-8.354000091552734 30.871000289916992,-8.354000091552734 C30.871000289916992,-8.354000091552734 -24.986000061035156,-13.697999954223633 -24.986000061035156,-13.697999954223633 C-24.986000061035156,-13.697999954223633 -26.65999984741211,-13.82699966430664 -26.65999984741211,-13.82699966430664 C-27.679000854492188,-13.906000137329102 -28.680999755859375,-13.534000396728516 -29.402999877929688,-12.812000274658203 C-29.402999877929688,-12.812000274658203 -50.07699966430664,7.861000061035156 -50.07699966430664,7.861000061035156 C-52.28200149536133,10.065999984741211 -50.72100067138672,13.836999893188477 -47.60200119018555,13.836999893188477 C-47.60200119018555,13.836999893188477 45.13199996948242,13.836999893188477 45.13199996948242,13.836999893188477 C45.13199996948242,13.836999893188477 51.11000061035156,7.860000133514404 51.11000061035156,7.860000133514404 C51.11000061035156,7.860000133514404 51.11000061035156,7.860000133514404 51.11000061035156,7.860000133514404z"></path></g></g><g transform="matrix(1,0.000007468253443221329,-0.000007468253443221329,1,984.04638671875,469.4910583496094)" opacity="1" style="display: block;"><g opacity="1" transform="matrix(1,0,0,1,0,0)"><path fill="rgb(246,243,235)" fill-opacity="1" d=" M-13.836999893188477,-47.60200119018555 C-13.836999893188477,-50.720001220703125 -10.065999984741211,-52.28200149536133 -7.861000061035156,-50.07699966430664 C-7.861000061035156,-50.07699966430664 12.812000274658203,-29.40399932861328 12.812000274658203,-29.40399932861328 C13.53499984741211,-28.680999755859375 13.904999732971191,-27.679000854492188 13.82699966430664,-26.65999984741211 C13.82699966430664,-26.65999984741211 13.697999954223633,-24.986000061035156 13.697999954223633,-24.986000061035156 C13.697999954223633,-24.986000061035156 8.357999801635742,30.829999923706055 8.357999801635742,30.829999923706055 C8.357999801635742,30.829999923706055 -7.888999938964844,51.11000061035156 -7.888999938964844,51.11000061035156 C-7.888999938964844,51.11000061035156 -13.836999893188477,45.1619987487793 -13.836999893188477,45.1619987487793 C-13.836999893188477,45.1619987487793 -13.807000160217285,45.1619987487793 -13.807000160217285,45.1619987487793 C-13.807000160217285,45.1619987487793 -13.836999893188477,45.132999420166016 -13.836999893188477,45.132999420166016 C-13.836999893188477,45.132999420166016 -13.836999893188477,-47.60200119018555 -13.836999893188477,-47.60200119018555z"></path></g></g><g transform="matrix(1,-0.000007468253443221329,0.000007468253443221329,1,935.70361328125,469.2410583496094)" opacity="1" style="display: block;"><g opacity="1" transform="matrix(1,0,0,1,0,0)"><path fill="rgb(246,243,235)" fill-opacity="1" d=" M13.836999893188477,-47.60200119018555 C13.836999893188477,-50.720001220703125 10.065999984741211,-52.28200149536133 7.861000061035156,-50.07699966430664 C7.861000061035156,-50.07699966430664 -12.812000274658203,-29.40399932861328 -12.812000274658203,-29.40399932861328 C-13.53499984741211,-28.680999755859375 -13.904999732971191,-27.679000854492188 -13.82699966430664,-26.65999984741211 C-13.82699966430664,-26.65999984741211 -13.697999954223633,-24.986000061035156 -13.697999954223633,-24.986000061035156 C-13.697999954223633,-24.986000061035156 -8.357999801635742,30.829999923706055 -8.357999801635742,30.829999923706055 C-8.357999801635742,30.829999923706055 7.888999938964844,51.11000061035156 7.888999938964844,51.11000061035156 C7.888999938964844,51.11000061035156 13.836999893188477,45.1619987487793 13.836999893188477,45.1619987487793 C13.836999893188477,45.1619987487793 13.807000160217285,45.1619987487793 13.807000160217285,45.1619987487793 C13.807000160217285,45.1619987487793 13.836999893188477,45.132999420166016 13.836999893188477,45.132999420166016 C13.836999893188477,45.132999420166016 13.836999893188477,-47.60200119018555 13.836999893188477,-47.60200119018555z"></path></g></g><g clip-path="url(#__lottie_element_542)" style="display: block;" transform="matrix(1,0,0,1,1025.697998046875,568.9929809570312)" opacity="1"><g opacity="1" transform="matrix(1,0,0,1,0,0)"><path fill="rgb(246,243,235)" fill-opacity="1" d=" M57.608001708984375,-13.836999893188477 C57.608001708984375,-13.836999893188477 -59.35499954223633,-13.836999893188477 -59.35499954223633,-13.836999893188477 C-59.35499954223633,-13.836999893188477 -60.250999450683594,-13.95199966430664 -60.6879997253418,-13.5600004196167 C-61.05699920654297,-13.229000091552734 -61.00699996948242,-12.355999946594238 -61.00699996948242,-12.355999946594238 C-61.00699996948242,-12.355999946594238 -61.09700012207031,0.5120000243186951 -61.09700012207031,0.5120000243186951 C-61.09700012207031,0.5120000243186951 -61.46900177001953,1.8980000019073486 -60.99100112915039,1.9500000476837158 C-29.461000442504883,5.361999988555908 34.992000579833984,13.697999954223633 34.992000579833984,13.697999954223633 C34.992000579833984,13.697999954223633 36.66600036621094,13.82699966430664 36.66600036621094,13.82699966430664 C37.685001373291016,13.906000137329102 38.6870002746582,13.53499984741211 39.409000396728516,12.812000274658203 C39.409000396728516,12.812000274658203 60.08300018310547,-7.861000061035156 60.08300018310547,-7.861000061035156 C62.28799819946289,-10.065999984741211 60.72600173950195,-13.836999893188477 57.608001708984375,-13.836999893188477z"></path></g></g><g clip-path="url(#__lottie_element_539)" style="display: block;" transform="matrix(1,0,0,1,892.947998046875,568.9929809570312)" opacity="1"><g opacity="1" transform="matrix(1,0,0,1,0,0)"><path fill="rgb(246,243,235)" fill-opacity="1" d=" M59.76300048828125,-13.836999893188477 C59.76300048828125,-13.836999893188477 -56.255001068115234,-13.836999893188477 -56.255001068115234,-13.836999893188477 C-59.374000549316406,-13.836999893188477 -60.935001373291016,-10.065999984741211 -58.72999954223633,-7.861000061035156 C-58.72999954223633,-7.861000061035156 -38.055999755859375,12.812000274658203 -38.055999755859375,12.812000274658203 C-37.33399963378906,13.53499984741211 -36.332000732421875,13.906000137329102 -35.3129997253418,13.82699966430664 C-35.3129997253418,13.82699966430664 -33.638999938964844,13.697999954223633 -33.638999938964844,13.697999954223633 C-33.638999938964844,13.697999954223633 58.38600158691406,4.894000053405762 58.38600158691406,4.894000053405762 C58.38600158691406,4.894000053405762 59.76300048828125,-13.836999893188477 59.76300048828125,-13.836999893188477z"></path></g></g><g transform="matrix(1,0,0,1,958.6300048828125,608.6809692382812)" opacity="1" style="display: block;"><g opacity="1" transform="matrix(0.9999992847442627,0.0012042769230902195,-0.0012042769230902195,0.9999992847442627,0,0)"><path fill="rgb(246,243,235)" fill-opacity="1" d=" M-8.062999725341797,-34.875 C-8.062999725341797,-34.875 -10.038999557495117,-7.979000091552734 -10.038999557495117,-7.979000091552734 C-10.038999557495117,-7.979000091552734 -12.310999870300293,22.952999114990234 -12.310999870300293,22.952999114990234 C-12.310999870300293,22.952999114990234 -12.310999870300293,22.952999114990234 -12.310999870300293,22.952999114990234 C-12.310999870300293,22.952999114990234 -14.288000106811523,49.849998474121094 -14.288000106811523,49.849998474121094 C-14.437000274658203,51.87900161743164 -12.831000328063965,53.60599899291992 -10.79699993133545,53.60599899291992 C-10.79699993133545,53.60599899291992 10.79699993133545,53.60599899291992 10.79699993133545,53.60599899291992 C12.831000328063965,53.60599899291992 14.437000274658203,51.87900161743164 14.288000106811523,49.849998474121094 C14.288000106811523,49.849998474121094 10.381999969482422,-3.311000108718872 10.381999969482422,-3.311000108718872 C10.381999969482422,-3.311000108718872 10.381999969482422,-3.311000108718872 10.381999969482422,-3.311000108718872 C10.381999969482422,-3.311000108718872 6.744999885559082,-52.79999923706055 6.744999885559082,-52.79999923706055 C6.744999885559082,-52.79999923706055 6.834000110626221,-52.810001373291016 6.622000217437744,-53.1879997253418 C6.409999847412109,-53.566001892089844 5.961999893188477,-53.60599899291992 5.961999893188477,-53.60599899291992 C5.961999893188477,-53.60599899291992 -5.7789998054504395,-53.60599899291992 -5.7789998054504395,-53.60599899291992 C-5.7789998054504395,-53.60599899291992 -6.170000076293945,-53.66299819946289 -6.416999816894531,-53.39699935913086 C-6.664000034332275,-53.13100051879883 -6.751999855041504,-52.709999084472656 -6.751999855041504,-52.709999084472656 C-6.751999855041504,-52.709999084472656 -8.062999725341797,-34.875 -8.062999725341797,-34.875 C-8.062999725341797,-34.875 -8.062999725341797,-34.875 -8.062999725341797,-34.875z"></path></g></g></g><g clip-path="url(#__lottie_element_513)" style="display: block;" transform="matrix(1.809999942779541,0,0,1.809999942779541,1339.42431640625,835.0794677734375)" opacity="1"><g clip-path="url(#__lottie_element_514)"><g transform="matrix(1,0,0,1,-639.0079956054688,-404.49298095703125)" opacity="1" style="display: block;"><g opacity="1" transform="matrix(1,0,0,1,1292.135986328125,573.385009765625)"><path fill="rgb(246,243,235)" fill-opacity="1" d=" M57.356998443603516,-58.6510009765625 C57.356998443603516,-58.6510009765625 39.04600143432617,-58.6510009765625 39.04600143432617,-58.6510009765625 C38.194000244140625,-58.6510009765625 37.465999603271484,-58.03799819946289 37.32099914550781,-57.19900131225586 C37.32099914550781,-57.19900131225586 34.59400177001953,-41.46799850463867 34.59400177001953,-41.46799850463867 C30.621000289916992,-47.270999908447266 25.430999755859375,-51.81399917602539 19.016000747680664,-55.0989990234375 C12.598999977111816,-58.38199996948242 5.039000034332275,-60.025001525878906 -3.6670000553131104,-60.025001525878906 C-14.204999923706055,-60.025001525878906 -23.67799949645996,-57.54100036621094 -32.07400131225586,-52.58000183105469 C-40.47600173950195,-47.6150016784668 -47.08100128173828,-40.58700180053711 -51.891998291015625,-31.50200080871582 C-56.70399856567383,-22.413000106811523 -59.10900115966797,-11.913999557495117 -59.10900115966797,0 C-59.10900115966797,12.220999717712402 -56.74300003051758,22.874000549316406 -52.00699996948242,31.959999084472656 C-47.27399826049805,41.04899978637695 -40.70600128173828,47.99700164794922 -32.30400085449219,52.80699920654297 C-23.9060001373291,57.61899948120117 -14.359000205993652,60.025001525878906 -3.6670000553131104,60.025001525878906 C4.885000228881836,60.025001525878906 12.371000289916992,58.27000045776367 18.785999298095703,54.75600051879883 C25.201000213623047,51.24399948120117 30.469999313354492,46.58599853515625 34.59400177001953,40.77899932861328 C34.59400177001953,40.77899932861328 37.11399841308594,57.16600036621094 37.11399841308594,57.16600036621094 C37.24599838256836,58.02000045776367 37.98099899291992,58.650001525878906 38.845001220703125,58.650001525878906 C38.845001220703125,58.650001525878906 57.356998443603516,58.650001525878906 57.356998443603516,58.650001525878906 C58.32400131225586,58.650001525878906 59.108001708984375,57.86600112915039 59.108001708984375,56.900001525878906 C59.108001708984375,56.900001525878906 59.108001708984375,-56.900001525878906 59.108001708984375,-56.900001525878906 C59.108001708984375,-57.867000579833984 58.32400131225586,-58.6510009765625 57.356998443603516,-58.6510009765625z M26.117000579833984,31.148000717163086 C19.652999877929688,39.06999969482422 11.13599967956543,43.03200149536133 0.5669999718666077,43.03200149536133 C-9.99899959564209,43.03200149536133 -18.55699920654297,39.112998962402344 -25.10300064086914,31.270999908447266 C-31.64699935913086,23.433000564575195 -34.92300033569336,13.241000175476074 -34.92300033569336,0.6940000057220459 C-34.92300033569336,-11.684000015258789 -31.64699935913086,-21.795000076293945 -25.10300064086914,-29.63599967956543 C-18.55699920654297,-37.472999572753906 -9.99899959564209,-41.395999908447266 0.5669999718666077,-41.395999908447266 C11.13599967956543,-41.395999908447266 19.652999877929688,-37.51599884033203 26.117000579833984,-29.759000778198242 C32.5880012512207,-21.99799919128418 35.81700134277344,-11.932999610900879 35.81700134277344,0.44600000977516174 C35.81700134277344,12.993000030517578 32.5880012512207,23.224000930786133 26.117000579833984,31.148000717163086z"></path></g></g><g transform="matrix(1,0,0,1,-639,-405.32598876953125)" opacity="1" style="display: block;"><g opacity="1" transform="matrix(1,0,0,1,1196.14697265625,572.2750244140625)"><path fill="rgb(246,243,235)" fill-opacity="1" d=" M30.698999404907227,-59.569000244140625 C13.791000366210938,-59.31399917602539 0.3199999928474426,-53.24599838256836 -7.425000190734863,-37.053001403808594 C-7.425000190734863,-37.053001403808594 -7.425000190734863,-37.08100128173828 -7.425000190734863,-37.08100128173828 C-7.425000190734863,-37.08100128173828 -10.006999969482422,-56.46099853515625 -10.006999969482422,-56.46099853515625 C-10.102999687194824,-57.18199920654297 -10.718000411987305,-57.720001220703125 -11.444000244140625,-57.720001220703125 C-11.444000244140625,-57.720001220703125 -30.7189998626709,-57.720001220703125 -30.7189998626709,-57.720001220703125 C-31.518999099731445,-57.720001220703125 -32.167999267578125,-57.07099914550781 -32.167999267578125,-56.27000045776367 C-32.167999267578125,-56.27000045776367 -32.167999267578125,58.13199996948242 -32.167999267578125,58.13199996948242 C-32.167999267578125,58.93199920654297 -31.518999099731445,59.58100128173828 -30.7189998626709,59.58100128173828 C-30.7189998626709,59.58100128173828 -8.875,59.58100128173828 -8.875,59.58100128173828 C-8.074000358581543,59.58100128173828 -7.425000190734863,58.93199920654297 -7.425000190734863,58.13199996948242 C-7.425000190734863,58.13199996948242 -7.425000190734863,3.8480000495910645 -7.425000190734863,3.8480000495910645 C-7.295000076293945,-3.055000066757202 -6.111999988555908,-9.890999794006348 -3.8389999866485596,-16.461000442504883 C-2.009999990463257,-21.74799919128418 0.5120000243186951,-26.649999618530273 4.677000045776367,-30.55500030517578 C9.734000205993652,-35.29800033569336 16.007999420166016,-37.209999084472656 22.634000778198242,-38.20899963378906 C25.340999603271484,-38.617000579833984 28.086000442504883,-38.78099822998047 30.840999603271484,-39.00899887084961 C31.590999603271484,-39.07099914550781 32.167999267578125,-39.702999114990234 32.167999267578125,-40.45600128173828 C32.167999267578125,-40.45600128173828 32.167999267578125,-58.11199951171875 32.167999267578125,-58.11199951171875 C32.167999267578125,-58.91899871826172 31.5049991607666,-59.58100128173828 30.698999404907227,-59.569000244140625z"></path></g></g><g transform="matrix(1,0,0,1,-639.97900390625,-403.47198486328125)" opacity="1" style="display: block;"><g opacity="1" transform="matrix(1,0,0,1,1088.175048828125,553.4140014648438)"><path fill="rgb(246,243,235)" fill-opacity="1" d=" M32.303001403808594,-32.83700180053711 C23.900999069213867,-37.64799880981445 14.354000091552734,-40.053001403808594 3.6649999618530273,-40.053001403808594 C-12.371000289916992,-40.053001403808594 -25.052000045776367,-33.78900146484375 -34.36600112915039,-21.267000198364258 C-34.36600112915039,-21.267000198364258 -37.534000396728516,-77.93199920654297 -37.534000396728516,-77.93199920654297 C-37.60499954223633,-79.2249984741211 -39.00699996948242,-79.99600219726562 -40.137001037597656,-79.36299896240234 C-40.137001037597656,-79.36299896240234 -58.21500015258789,-70.51100158691406 -58.21500015258789,-70.51100158691406 C-58.766998291015625,-70.2020034790039 -59.10900115966797,-69.61799621582031 -59.10900115966797,-68.98500061035156 C-59.10900115966797,-68.98500061035156 -59.10900115966797,76.87200164794922 -59.10900115966797,76.87200164794922 C-59.10900115966797,77.83899688720703 -58.32600021362305,78.62200164794922 -57.35900115966797,78.62200164794922 C-57.35900115966797,78.62200164794922 -39.04199981689453,78.62200164794922 -39.04199981689453,78.62200164794922 C-38.19200134277344,78.62200164794922 -37.46500015258789,78.01200103759766 -37.31800079345703,77.17500305175781 C-37.31800079345703,77.17500305175781 -34.59400177001953,61.66699981689453 -34.59400177001953,61.66699981689453 C-30.625,67.31999969482422 -25.43000030517578,71.78900146484375 -19.016000747680664,75.0719985961914 C-12.60099983215332,78.35700225830078 -5.040999889373779,79.99700164794922 3.6649999618530273,79.99700164794922 C14.354000091552734,79.99700164794922 23.900999069213867,77.47699737548828 32.303001403808594,72.43699645996094 C40.70100021362305,67.39600372314453 47.270999908447266,60.33300018310547 52.00699996948242,51.24399948120117 C56.73899841308594,42.15800094604492 59.10900115966797,31.735000610351562 59.10900115966797,19.97100067138672 C59.10900115966797,7.599999904632568 56.73899841308594,-3.0889999866485596 52.00699996948242,-12.102999687194824 C47.270999908447266,-21.113000869750977 40.70100021362305,-28.024999618530273 32.303001403808594,-32.83700180053711z M24.08799934387207,51.24300003051758 C17.54199981689453,59.084999084472656 8.984000205993652,63.00400161743164 -1.5820000171661377,63.00400161743164 C-12.151000022888184,63.00400161743164 -20.667999267578125,59.04199981689453 -27.131999969482422,51.119998931884766 C-33.60300064086914,43.19599914550781 -36.832000732421875,32.9630012512207 -36.832000732421875,20.41699981689453 C-36.832000732421875,8.038000106811523 -33.60300064086914,-2.0269999504089355 -27.131999969482422,-9.788000106811523 C-20.667999267578125,-17.54400062561035 -12.151000022888184,-21.423999786376953 -1.5820000171661377,-21.423999786376953 C8.984000205993652,-21.423999786376953 17.54199981689453,-17.50200080871582 24.08799934387207,-9.663999557495117 C30.631999969482422,-1.8229999542236328 33.90800094604492,8.286999702453613 33.90800094604492,20.666000366210938 C33.90800094604492,33.2130012512207 30.631999969482422,43.404998779296875 24.08799934387207,51.24300003051758z"></path></g></g><g transform="matrix(1,0,0,1,-640.7900390625,-404.322021484375)" opacity="1" style="display: block;"><g opacity="1" transform="matrix(1,0,0,1,953.760986328125,573.614013671875)"><path fill="rgb(246,243,235)" fill-opacity="1" d=" M34.79899978637695,-49.4640007019043 C26.875999450683594,-55.24300003051758 17.92099952697754,-58.4119987487793 8.243000030517578,-59.6349983215332 C-4.4120001792907715,-61.236000061035156 -16.611000061035156,-59.84299850463867 -28.16200065612793,-54.09700012207031 C-39.60499954223633,-48.40299987792969 -47.430999755859375,-39.369998931884766 -52.45000076293945,-27.802000045776367 C-55.86600112915039,-19.929000854492188 -57.099998474121094,-11.57699966430664 -57.345001220703125,-3.055000066757202 C-57.64400100708008,7.367000102996826 -56.54499816894531,17.586000442504883 -52.44300079345703,27.277000427246094 C-48.18199920654297,37.345001220703125 -41.632999420166016,45.60200119018555 -32.207000732421875,51.31399917602539 C-18.833999633789062,59.417999267578125 -4.270999908447266,61.23699951171875 10.925999641418457,58.784000396728516 C22.159000396728516,56.97100067138672 32.20800018310547,52.391998291015625 40.750999450683594,44.797000885009766 C46.1150016784668,40.02799987792969 50.02199935913086,34.22100067138672 52.983001708984375,27.621999740600586 C53.37799835205078,26.742000579833984 52.7140007019043,25.746000289916992 51.75,25.746000289916992 C51.75,25.746000289916992 30.076000213623047,25.746000289916992 30.076000213623047,25.746000289916992 C29.614999771118164,25.746000289916992 29.187999725341797,25.9689998626709 28.913999557495117,26.34000015258789 C27.07699966430664,28.826000213623047 24.91200065612793,31.038999557495117 22.35700035095215,32.9109992980957 C15.411999702453613,38.000999450683594 7.531000137329102,40.244998931884766 -1.0089999437332153,40.270999908447266 C-8.51099967956543,40.292999267578125 -15.414999961853027,38.32400131225586 -21.523000717163086,33.83599853515625 C-27.14699935913086,29.70400047302246 -30.715999603271484,24.135000228881836 -32.78200149536133,17.579999923706055 C-33.45899963378906,15.432000160217285 -33.90399932861328,13.211999893188477 -34.4109992980957,10.901000022888184 C-34.61000061035156,9.993000030517578 -33.91600036621094,9.133000373840332 -32.98699951171875,9.133000373840332 C-32.98699951171875,9.133000373840332 54.57899856567383,9.133000373840332 54.57899856567383,9.133000373840332 C55.30699920654297,9.133000373840332 55.933998107910156,8.604000091552734 56.03300094604492,7.882999897003174 C57.64400100708008,-3.8480000495910645 56.03900146484375,-17.614999771118164 51.39400100708008,-28.35700035095215 C47.74599838256836,-36.792999267578125 42.301998138427734,-43.99100112915039 34.79899978637695,-49.4640007019043z M31.996999740600586,-10.4350004196167 C31.996999740600586,-10.4350004196167 -32.805999755859375,-10.4350004196167 -32.805999755859375,-10.4350004196167 C-33.69599914550781,-10.4350004196167 -34.39500045776367,-11.22700023651123 -34.250999450683594,-12.104000091552734 C-31.652000427246094,-27.8439998626709 -20.68899917602539,-39.61600112915039 -4.01800012588501,-40.654998779296875 C16.70800018310547,-41.946998596191406 30.194000244140625,-30.437999725341797 33.44200134277344,-12.130000114440918 C33.5989990234375,-11.246000289916992 32.89500045776367,-10.4350004196167 31.996999740600586,-10.4350004196167z"></path></g></g><g transform="matrix(1,0,0,1,-641.0250244140625,-404.22698974609375)" opacity="1" style="display: block;"><g opacity="1" transform="matrix(1,0,0,1,854.780029296875,552.406982421875)"><path fill="rgb(246,243,235)" fill-opacity="1" d=" M-2.5920000076293945,78.75 C-2.0290000438690186,79.31300354003906 -1.2660000324249268,79.62799835205078 -0.47099998593330383,79.62799835205078 C-0.47099998593330383,79.62799835205078 9.907999992370605,79.62799835205078 9.907999992370605,79.62799835205078 C9.907999992370605,79.62799835205078 29.149999618530273,79.62799835205078 29.149999618530273,79.62799835205078 C30.1200008392334,79.62799835205078 30.9060001373291,78.84100341796875 30.9060001373291,77.87200164794922 C30.9060001373291,77.87200164794922 30.9060001373291,59.619998931884766 30.9060001373291,59.619998931884766 C30.9060001373291,58.650001525878906 30.1200008392334,57.86399841308594 29.149999618530273,57.86399841308594 C29.149999618530273,57.86399841308594 4.806000232696533,57.86399841308594 4.806000232696533,57.86399841308594 C3.7019999027252197,57.86399841308594 2.805999994277954,56.96799850463867 2.805999994277954,55.86399841308594 C2.805999994277954,55.86399841308594 2.805999994277954,-21.589000701904297 2.805999994277954,-21.589000701904297 C2.805999994277954,-21.589000701904297 27.100000381469727,-21.589000701904297 27.100000381469727,-21.589000701904297 C28.069000244140625,-21.589000701904297 28.856000900268555,-22.374000549316406 28.856000900268555,-23.3439998626709 C28.856000900268555,-23.3439998626709 28.856000900268555,-41.59700012207031 28.856000900268555,-41.59700012207031 C28.856000900268555,-42.56700134277344 28.069000244140625,-43.35300064086914 27.100000381469727,-43.35300064086914 C27.100000381469727,-43.35300064086914 2.805999994277954,-43.35300064086914 2.805999994277954,-43.35300064086914 C2.805999994277954,-43.35300064086914 2.805999994277954,-77.48500061035156 2.805999994277954,-77.48500061035156 C2.805999994277954,-78.77799987792969 1.4550000429153442,-79.62899780273438 0.289000004529953,-79.06800079345703 C0.289000004529953,-79.06800079345703 -18.760000228881836,-70.08599853515625 -18.760000228881836,-70.08599853515625 C-19.368000030517578,-69.79399871826172 -19.7549991607666,-69.1780014038086 -19.7549991607666,-68.50299835205078 C-19.7549991607666,-68.50299835205078 -19.7549991607666,-43.35300064086914 -19.7549991607666,-43.35300064086914 C-19.7549991607666,-43.35300064086914 -29.14900016784668,-43.35300064086914 -29.14900016784668,-43.35300064086914 C-30.118999481201172,-43.35300064086914 -30.905000686645508,-42.56700134277344 -30.905000686645508,-41.59700012207031 C-30.905000686645508,-41.59700012207031 -30.905000686645508,-23.3439998626709 -30.905000686645508,-23.3439998626709 C-30.905000686645508,-22.374000549316406 -30.118999481201172,-21.589000701904297 -29.14900016784668,-21.589000701904297 C-29.14900016784668,-21.589000701904297 -19.7549991607666,-21.589000701904297 -19.7549991607666,-21.589000701904297 C-19.7549991607666,-21.589000701904297 -19.7549991607666,60.345001220703125 -19.7549991607666,60.345001220703125 C-19.7549991607666,61.13999938964844 -19.43899917602539,61.90299987792969 -18.875999450683594,62.465999603271484 C-18.875999450683594,62.465999603271484 -2.5920000076293945,78.75 -2.5920000076293945,78.75z"></path></g></g></g></g><g transform="matrix(1.0499999523162842,0,0,1.0499999523162842,2858.2119140625,1080)" opacity="1" style="display: block;"></g></g></svg>